<svg xmlns="http://www.w3.org/2000/svg" viewBox="0 0 128 320"><style>.a{fill:#FFF;}</style><path d="M24.3 48.3c-9.2 0-16.7-7.5-16.7-16.7 0-9.2 7.5-16.7 16.7-16.7 4.3 0 8.3 1.6 11.2 4.3 -3.5 3.3-3.4 3.5-4.7 4.9 -1.7-1.4-3.6-2.4-6.5-2.4 -5.5 0-9.7 4.4-9.7 9.9s4.3 9.9 9.8 9.9c5.4 0 7.6-2.3 9-6.6l-9 0v-6.6h16C41.4 36.3 38.1 48.3 24.3 48.3zM54.4 32.8v6h-4.1v-5.9h-6v-4.1h6v-5.8h4.1v5.8h5.8v4.1H54.4z" class="a"/><path d="M46.1 83h5v-9c-2-0.1-4.6-0.1-8.1-0.2 -12.4-0.3-11.9 12.5-11.9 12.5v7.3h-8.5v9.6h8.5v24.9H41v-24.9h8.3l1.2-9.6H41v-6.4C41 82.6 46.1 83 46.1 83z" class="a"/><path d="M40.3 219.3c0.8 0 1.9-0.4 3.1-1.8v1.6h2.7v-14.4H43.4v11c-0.3 0.4-1.1 1.1-1.6 1.1 -0.6 0-0.7-0.4-0.7-1v-11.1h-2.7v12.1C38.4 218.2 38.9 219.3 40.3 219.3z" class="a"/><path d="M28.3 215.5c0 2.5 1.3 3.9 3.9 3.9 2.2 0 3.9-1.4 3.9-3.9v-7.1c0-2.3-1.7-3.9-3.9-3.9 -2.4 0-3.9 1.6-3.9 3.9V215.5zM31.1 208.7c0-0.8 0.4-1.4 1.1-1.4 0.8 0 1.2 0.6 1.2 1.4v6.7c0 0.8-0.4 1.4-1.1 1.4 -0.7 0-1.2-0.6-1.2-1.4V208.7z" class="a"/><polygon points="21.9 219.1 25 219.1 25 211.2 28.5 199.5 25.4 199.5 23.5 207.4 21.4 199.5 18.3 199.5 21.9 211.2 " class="a"/><path d="M49.7 222.4H18c-3.4 0-6.2 2.8-6.2 6.2v15.6c0 3.4 2.8 6.2 6.2 6.2h31.7c3.4 0 6.2-2.8 6.2-6.2v-15.6C55.9 225.2 53.1 222.4 49.7 222.4zM22.3 245.7h-2.9V229.8h-3v-2.7h8.8l0 0v2.7h-3L22.3 245.7 22.3 245.7zM32.5 245.7h-2.6v-1.5c-0.5 0.6-1 1-1.5 1.3 -1.4 0.8-3.3 0.8-3.3-2V231.9h2.6v10.6c0 0.6 0.1 0.9 0.7 0.9 0.5 0 1.2-0.6 1.5-1v-10.4h2.6V245.7zM42.4 242.8c0 1.7-0.6 3-2.3 3 -0.9 0-1.7-0.3-2.4-1.2v1.1h-2.6v-18.7h2.6v6c0.6-0.7 1.4-1.3 2.3-1.3 1.9 0 2.5 1.6 2.5 3.4V242.8zM51.8 239.1h-4.9v2.6c0 1 0.1 1.9 1.1 1.9 1.1 0 1.1-0.7 1.1-1.9v-1h2.6v1c0 2.7-1.1 4.3-3.8 4.3 -2.4 0-3.7-1.8-3.7-4.3v-6.2c0-2.4 1.6-4 3.9-4 2.5 0 3.6 1.6 3.6 4L51.8 239.1 51.8 239.1z" class="a"/><path d="M38.1 234.1c-0.2 0.1-0.4 0.2-0.5 0.4v8.6c0.2 0.2 0.4 0.4 0.6 0.5 0.4 0.2 1 0.2 1.3-0.1 0.1-0.2 0.2-0.5 0.2-0.9v-7.1c0-0.5-0.1-0.8-0.3-1.1C39.1 233.9 38.6 233.9 38.1 234.1z" class="a"/><path d="M48.1 234c-0.9 0-1.1 0.7-1.1 1.6v1.4h2.3v-1.4C49.2 234.7 49 234 48.1 234z" class="a"/><path d="M57.9 144c-1.8 0.8-3.8 1.4-5.9 1.6 2.1-1.3 3.8-3.3 4.5-5.7 -2 1.2-4.2 2-6.5 2.5 -1.9-2-4.6-3.2-7.5-3.2 -5.7 0-10.3 4.6-10.3 10.3 0 0.8 0.1 1.6 0.3 2.3 -8.6-0.4-16.2-4.5-21.2-10.7 -0.9 1.5-1.4 3.3-1.4 5.2 0 3.6 1.8 6.7 4.6 8.5 -1.7-0.1-3.3-0.5-4.7-1.3v0.1c0 5 3.5 9.1 8.3 10.1 -0.9 0.2-1.8 0.4-2.7 0.4 -0.7 0-1.3-0.1-1.9-0.2 1.3 4.1 5.1 7 9.6 7.1 -3.5 2.8-8 4.4-12.8 4.4 -0.8 0-1.6 0-2.5-0.1 4.6 2.9 10 4.6 15.8 4.6 19 0 29.3-15.6 29.3-29.2 0-0.4 0-0.9 0-1.3C54.8 147.9 56.6 146.1 57.9 144z" class="a"/><rect x="9.7" y="267.6" width="45.4" height="8.8" class="a"/><rect x="9.7" y="284.1" width="45.4" height="8.8" class="a"/><rect x="9.7" y="300.7" width="45.4" height="8.8" class="a"/><rect x="73.7" y="267.6" width="45.4" height="8.8"/><rect x="73.7" y="284.1" width="45.4" height="8.8"/><rect x="73.7" y="300.7" width="45.4" height="8.8"/><polygon points="-88.5 0 -87.5 0 -87.5 0 " style="fill:#FFF;stroke:#000"/></svg>