<svg xmlns="http://www.w3.org/2000/svg"  viewBox="152.5 0 418 248.5"><style>.a{fill:#09C;}</style><path d="M410.7 53.3C410.4 37.7 402.4 26.8 385.1 27.4c-4.1 0.1-8.3 0-9 0 -8.2 0-12.1-0.9-12.1-8.7v-2.1h-12.6v2.1c0 7.8-3.8 8.7-12.1 8.7 -0.7 0-4.9 0.1-9 0 -17.3-0.6-25.3 10.3-25.7 25.9h0v4.7h12.7v-4.2c0.4-6.1 1.2-14.1 11.6-14 2.9 0 5.6 0.3 8.4 0.3 5.7 0 16.5 0 20.4-6.1h0c3.9 6.1 14.7 6.1 20.4 6.1 2.9 0 5.6-0.2 8.4-0.3 10.3-0.1 11.2 7.9 11.6 14v4.2h12.7v-4.7H410.7z" class="a"/><path d="M398.1 85.8c-7 0-73.6 0-80.8 0 0-4.9 0-13.2 0-17.9 -4.3 0-8.3 0-12.6 0 0 10.3 0 20.4 0 30.5 9.2 0 97 0 106.1 0 0-10.1 0-20.2 0-30.5 -4.4 0-8.3 0-12.6 0C398.1 72.6 398.1 80.9 398.1 85.8z" class="a"/><path d="M247.8 178.5c-1.9-1-3.8-1.7-5.8-2.6 -0.3-0.1-0.6-0.2-0.9-0.3 0.1-0.1 0.3-0.1 0.4-0.2 6.9-3.4 11.2-7.5 13.6-13 3.9-9 1.6-22.2-10.3-28.9 -5-2.8-10.5-4.4-17-4.9 -2.1-0.2-4.2-0.2-6.2-0.2 -6.9 0-13.8 0.9-20.5 2.7 -2.4 0.6-4.9 1.3-7.3 2l-4 1.1v87.5l0.6 0.3c8.1 3.4 16.7 5.4 25.6 5.9 1.9 0.1 3.7 0.2 5.4 0.2l0 0c7.4 0 13.4-1.1 18.8-3.3 8.9-3.7 14.7-9 17.8-16.5C263.1 195.7 259.2 184.4 247.8 178.5zM205.6 142.7c0.6-0.1 5.8-1.1 7.7-1.4 3.5-0.4 6.2-0.6 8.7-0.6 5.3 0 10.6 1.6 12.2 2.3 4.3 1.8 7 5.2 7.7 9.8 0.7 4.8-1.1 9.8-4.6 12.8 -3.5 2.9-7.7 4.5-12.2 4.7 -3.6 0.2-19.5 0.2-19.5 0.2L205.6 142.7 205.6 142.7zM237.5 211.5c-7.5 4.5-13.6 3.7-15.6 3.7 -5.6 0-11.1-0.8-16.3-2.4V183c0.3 0 9-0.1 10.6-0.1 3.2 0 5.7 0.1 8.1 0.2 3.5 0.2 6.9 0.7 10 1.7 6.3 1.9 9.8 5.8 10.2 11.6C245 202.9 242.8 208.3 237.5 211.5z"/><path d="M315.6 158.4c-4.5-2-9.3-3-14.3-3 -1.9 0-3.8 0.1-5.7 0.4 -12.3 1.7-20.9 8.2-25.7 19.3 -3.1 7.2-4 15.3-2.6 24 1.2 7.6 4.3 13.9 9.1 18.9 6.3 6.5 14.3 9.7 24.5 9.7 2.6 0 6.3-0.4 6.3-0.4 11.7-1.9 20-8.4 24.7-19.1 3.7-8.4 4.4-17.5 2.1-27C331.4 170.3 325.2 162.6 315.6 158.4zM317.3 205.4c-3 6.2-8 9.4-14.7 9.7 -0.4 0-0.9 0-1.3 0 -2.5 0-4.7-0.3-6.6-0.8 -5.8-1.7-9.7-5.8-11.6-12.5 -2.1-7.5-2-14.9 0.4-21.9 2.7-7.9 8.8-12 17.5-12l0.1 0c8.5 0 14.4 4.3 17.2 12.2 1.2 3.4 1.7 7 1.7 12.2C320.1 197.3 319.2 201.7 317.3 205.4z"/><path d="M461.8 214.2c-1 0.3-1.9 0.7-2.9 0.8 -1 0.2-1.9 0.3-2.9 0.3 -0.5 0-0.9 0-1.4-0.1 -3.2-0.3-4.8-1.8-5.2-5.1 -0.2-1.9-0.3-3.8-0.3-5.8 0-22.4 0-67.5 0-74.5v-1.9h-14.8v1c0 0.5-0.1 51.7 0 75.9 0 3.7 0.3 6.9 0.9 9.8 1.2 5.8 4.5 9.9 9.5 11.7 2.8 1 5.6 1.5 8.4 1.5 3.1 0 6.3-0.6 9.3-1.9 0.7-0.3 1.2-0.6 1.6-0.8l0.5-0.3v-11.6l-1.3 0.4C462.7 213.8 462.2 214 461.8 214.2z"/><path d="M425.6 212.3l-1.3 0.6c-3.2 1.5-6.4 2.3-9.4 2.4 -0.3 0-0.5 0-0.8 0 -5.7 0-8.7-2.4-9.8-7.9 -0.3-1.7-0.5-3.6-0.5-6 0-3.9 0-12.4 0-30.6v0l20.4 0v-11.9h-20.5v-26.4l-14.8 3.6v0.8c0 4.1 0.1 55.1 0.2 64.7 0 3.8 0.3 6.9 0.8 9.8 1.5 8.6 7.3 14.5 15.8 16 2 0.4 3.6 0.5 5.3 0.5 1.4 0 2.9-0.1 4.9-0.3 3.7-0.4 6.7-1.3 9.4-2.8l0.5-0.3c0 0 0-1.8 0-2.7 0-2.6 0-6.5 0-7.8L425.6 212.3z"/><path d="M380.1 212.4l-1.3 0.6c-4.6 2-8.7 2.3-9.4 2.3 -0.3 0-0.5 0-0.8 0 -5.7 0-8.7-2.4-9.8-7.9 -0.3-1.7-0.5-3.6-0.5-6 0-3.9 0-12.4 0-30.6v0l20.4 0v-11.9h-20.5v-21.7l-14.8 3.6v0.8c0 3.9 0.1 50.2 0.2 59.9 0 3.8 0.3 6.9 0.8 9.8 1.5 8.6 7.3 14.5 15.8 16 2 0.4 3.6 0.5 5.3 0.5 1.4 0 2.9-0.1 4.9-0.3 3.7-0.4 6.7-1.3 9.4-2.8l0.5-0.3c0 0 0-1.8 0-2.7 0-2.6 0-6.5 0-7.8L380.1 212.4z"/><path d="M512.1 158c-3.9-1.8-8.2-2.6-12.7-2.6 -1.9 0-3.8 0.2-5.7 0.4 -13 2-21.9 9.1-26.3 21.2 -2.6 7-2.9 14.7-1 23.3 2.8 12.4 9.8 20.7 20.9 24.9 4.5 1.7 9.3 2.5 14.4 2.5 3 0 6.1-0.3 9.2-0.9 4.5-0.8 8.7-2.4 12.5-4.8 1.3-0.8 1.9-1.5 1.9-2 0 0-0.1-9.3-0.1-10.1v-1.6l-1.4 0.8c-0.6 0.3-1.1 0.6-1.6 0.9 -1 0.6-2 1.1-2.9 1.6 -5.1 2.7-10.4 4-15.8 4 -2.1 0-4.3-0.2-6.5-0.6 -9.5-1.8-16.1-9.6-16.9-20.1h48.2l0.8 0 0.1-0.8c0.4-2.4 1-6.5 0.2-11.7C527.8 170.4 522.1 162.4 512.1 158zM480.1 184.2c0-0.1 0-0.2 0-0.2 0.1-0.9 0.2-1.7 0.4-2.5 2.2-8.9 8.2-13.8 17.3-14.1 0.5 0 1.1 0 1.6 0 1.8 0 3.3 0.1 4.6 0.4 6.7 1.4 10.7 5.6 12.2 12.9 0.2 0.9 0.3 1.9 0.5 3 0 0.2 0 0.4 0.1 0.5L480.1 184.2 480.1 184.2z"/><path d="M537.3 223.5c-0.1-0.1-0.3-0.2-0.5-0.3 0.5 0 0.8-0.2 1.1-0.5 0.3-0.3 0.4-0.6 0.4-1 0-0.3-0.1-0.5-0.2-0.8 -0.2-0.2-0.4-0.4-0.7-0.5 -0.3-0.1-0.7-0.1-1.4-0.1h-1.8v5.4h0.9v-2.3h0.5c0.3 0 0.5 0.1 0.7 0.2 0.2 0.2 0.5 0.6 0.9 1.2l0.5 0.8h1.1l-0.7-1C537.8 224.1 537.5 223.7 537.3 223.5zM536.2 222.6h-1v-1.6h1c0.4 0 0.7 0 0.9 0.1 0.2 0.1 0.3 0.2 0.4 0.3s0.1 0.3 0.1 0.4c0 0.2-0.1 0.4-0.3 0.6C537 222.6 536.7 222.6 536.2 222.6z"/><path d="M540.8 220.4c-0.4-0.8-1.1-1.4-1.9-1.8 -0.8-0.4-1.6-0.6-2.4-0.6 -0.8 0-1.6 0.2-2.4 0.6 -0.8 0.4-1.4 1-1.9 1.8s-0.7 1.6-0.7 2.5c0 0.9 0.2 1.7 0.7 2.5 0.4 0.8 1.1 1.4 1.8 1.8s1.6 0.7 2.5 0.7c0.9 0 1.7-0.2 2.5-0.7 0.8-0.4 1.4-1.1 1.8-1.8s0.7-1.6 0.7-2.5C541.4 222 541.2 221.2 540.8 220.4zM540 225c-0.4 0.7-0.9 1.2-1.5 1.5 -0.7 0.4-1.3 0.6-2.1 0.6 -0.7 0-1.4-0.2-2.1-0.5 -0.7-0.4-1.2-0.9-1.5-1.5 -0.4-0.7-0.6-1.3-0.6-2.1 0-0.7 0.2-1.4 0.6-2.1 0.4-0.7 0.9-1.2 1.6-1.5 0.7-0.4 1.3-0.5 2-0.5 0.7 0 1.4 0.2 2 0.5 0.7 0.4 1.2 0.9 1.6 1.5 0.4 0.7 0.6 1.4 0.6 2.1C540.6 223.6 540.4 224.3 540 225z"/></svg>
 
