<?xml version="1.0" standalone="no"?>
<!DOCTYPE svg PUBLIC "-//W3C//DTD SVG 20010904//EN"
 "http://www.w3.org/TR/2001/REC-SVG-20010904/DTD/svg10.dtd">
<svg version="1.0" xmlns="http://www.w3.org/2000/svg"
 width="260.000000pt" height="260.000000pt" viewBox="0 0 260.000000 260.000000"
 preserveAspectRatio="xMidYMid meet">
<metadata>
Created by potrace 1.11, written by Peter Selinger 2001-2013
</metadata>
<g transform="translate(0.000000,260.000000) scale(0.100000,-0.100000)"
fill="#000000" stroke="none">
<path d="M1160 2280 c-1 -3 -2 -33 -4 -67 -2 -46 -9 -72 -27 -98 -41 -60 -74
-67 -334 -70 -262 -3 -332 -15 -431 -70 -109 -61 -192 -177 -229 -320 -18 -68
-32 -295 -19 -296 43 -4 274 -3 275 1 0 3 2 43 5 90 7 164 46 250 132 290 44
22 61 23 282 25 293 2 375 19 457 98 l32 30 39 -35 c82 -74 199 -98 467 -94
99 1 198 -2 220 -6 119 -26 175 -129 179 -326 1 -35 7 -66 13 -70 8 -5 213 -7
267 -3 9 1 2 202 -9 256 -33 167 -129 306 -255 370 -90 46 -166 57 -405 60
-121 2 -233 6 -249 10 -79 17 -117 66 -122 159 -1 33 -3 63 -3 66 -1 7 -281 7
-281 0z"/>
<path d="M110 794 l0 -343 1190 0 1190 0 0 342 0 343 -137 -2 c-76 -1 -140 -2
-143 -3 -3 0 -5 -89 -5 -196 0 -124 -3 -196 -10 -198 -9 -3 -1783 -1 -1795 2
-3 0 -5 89 -5 196 0 125 -3 195 -10 196 -5 1 -70 2 -142 3 l-133 2 0 -342z"/>
</g>
</svg>
