<svg xmlns="http://www.w3.org/2000/svg" viewBox="0 0 64 96"><style>.a{fill:#231F20;}.b{fill:#FFF;}</style><polygon points="26.5 42 22.1 37.6 16.1 43.7 10.1 37.6 5.7 42 11.8 48 5.7 54 10.1 58.4 16.1 52.3 22.1 58.4 26.5 54 20.4 48 " class="a"/><polygon points="23.2 12.2 16 5 8.8 12.2 12.9 12.2 12.9 27 19.1 27 19.1 12.2 " class="a"/><polygon points="27 86.1 27 69.7 20.9 69.7 20.9 80 12.2 80 12.2 75.9 5 83.1 12.2 90.3 12.2 86.1 27 86.1 27 86.1 " class="a"/><polygon points="59 86.1 44.2 86.1 44.2 90.3 37 83.1 44.2 75.9 44.2 80 52.9 80 52.9 69.7 59 69.7 59 86.1 " class="b"/><polygon points="58.5 54 54.1 58.4 48.1 52.3 42.1 58.4 37.7 54 43.8 48 37.7 42 42.1 37.6 48.1 43.7 54.1 37.6 58.5 42 52.4 48 " class="b"/><polygon points="51.1 27 44.9 27 44.9 12.2 40.8 12.2 48 5 55.2 12.2 51.1 12.2 " class="b"/></svg>