<?xml version="1.0" encoding="utf-8"?>
<!-- Generator: Adobe Illustrator 16.0.0, SVG Export Plug-In . SVG Version: 6.00 Build 0)  -->
<!DOCTYPE svg PUBLIC "-//W3C//DTD SVG 1.1//EN" "http://www.w3.org/Graphics/SVG/1.1/DTD/svg11.dtd">
<svg version="1.1"
	 id="svg1979" xmlns:rdf="http://www.w3.org/1999/02/22-rdf-syntax-ns#" xmlns:cc="http://web.resource.org/cc/" xmlns:dc="http://purl.org/dc/elements/1.1/" xmlns:inkscape="http://www.inkscape.org/namespaces/inkscape" xmlns:sodipodi="http://sodipodi.sourceforge.net/DTD/sodipodi-0.dtd" xmlns:svg="http://www.w3.org/2000/svg" sodipodi:docname="3m.svg" inkscape:version="0.44" sodipodi:version="0.32" sodipodi:docbase="C:\Dokumente und Einstellungen\Andreas\Eigene Dateien\Eigene Bilder\sonstiges\Logos\Vektor\Computer, Electronics"
	 xmlns="http://www.w3.org/2000/svg" xmlns:xlink="http://www.w3.org/1999/xlink" x="0px" y="0px" 
	 viewBox="0 0 612 314.5" enable-background="new 0 0 612 314.5" xml:space="preserve">
<sodipodi:namedview  units="mm" inkscape:pageshadow="2" pagecolor="#ffffff" inkscape:cx="336.02814" borderopacity="1.0" inkscape:zoom="1.4" inkscape:cy="279.87683" id="base" bordercolor="#666666" inkscape:pageopacity="0.0" inkscape:window-width="925" inkscape:window-height="574" inkscape:document-units="px" inkscape:current-layer="layer1" inkscape:window-y="339" inkscape:window-x="256">
	</sodipodi:namedview>
<g id="layer1" transform="translate(-53.99379,-369.21)" inkscape:label="Ebene 1" inkscape:groupmode="layer">
	<path id="path1882" sodipodi:nodetypes="cssccccssscccccssssccccsssccccccsccccscccsccccsssccccsssssc" fill="#CC2032" d="
		M261.098,603.452c-11.645-0.623-23.075-3.358-31.279-7.485c-10.401-5.234-18.101-13.162-22.907-23.588
		c-3.076-6.676-5.528-18.412-5.547-26.563l-0.009-3.748h42.953l0.351,3.992c1.133,12.859,6.995,20.488,17.069,22.215
		c4.014,0.688,10.039-0.002,13.554-1.551c7.238-3.192,11.186-13.142,7.9-19.911c-3.241-6.677-8.356-8.921-21.481-9.433l-7.618-0.298
		V522.71v-14.375l10.521-0.241c9.707-0.222,10.774-0.335,13.78-1.452c5.704-2.12,7.894-4.463,8.435-9.021
		c0.708-5.97-2.709-11.041-8.793-13.055c-9.149-3.029-19.882-1.064-24.817,4.542c-1.878,2.132-3.503,6.203-4.199,10.513
		l-0.292,1.814h-41.7l0.311-3.991c0.614-7.888,3.733-17.997,7.564-24.516c5.16-8.778,15.781-16.594,27.339-20.118
		c10.544-3.214,27.733-4.47,39.908-2.918c24.368,3.11,37.639,11.957,45.026,30.017l1.385,3.387l0.014-15.602l0.012-15.6h63.334
		l0.479,1.814c6.873,27.194,13.543,54.44,20.434,81.631l21.552-83.204l63.51-0.25v149.483h-43.053
		c-0.96-30.588,1.368-61.346-0.427-91.912l-22.552,91.902l-37.472,0.009l-0.26-1.089c-3.433-14.372-22.562-91.536-22.736-91.708
		l-0.241,92.797h-42.569v-27.759l-1.729,2.874c-7.003,11.642-18.468,19.745-34.067,24.08c-5.078,1.412-10.915,2.298-16.689,2.536
		c-3.191,0.132-6.457,0.296-7.257,0.365C268.039,603.733,264.555,603.638,261.098,603.452z M328.564,520.178l-0.016-16.567
		l-2.151,4.112c-2.436,4.654-4.731,7.229-9.79,10.981c-1.928,1.431-3.504,2.757-3.5,2.945c0.003,0.188,1.207,1.178,2.675,2.198
		c4.016,2.788,7.973,6.671,10.136,9.945c1.064,1.611,2.099,2.935,2.298,2.942C328.416,536.741,328.572,529.291,328.564,520.178z"/>
</g>
</svg>
