<?xml version="1.0" encoding="utf-8"?>
<!-- Generator: Adobe Illustrator 16.0.0, SVG Export Plug-In . SVG Version: 6.00 Build 0)  -->
<!DOCTYPE svg PUBLIC "-//W3C//DTD SVG 1.1//EN" "http://www.w3.org/Graphics/SVG/1.1/DTD/svg11.dtd">
<svg version="1.1" id="svg10140" xmlns:svg="http://www.w3.org/2000/svg"
	 xmlns="http://www.w3.org/2000/svg" xmlns:xlink="http://www.w3.org/1999/xlink" x="0px" y="0px" 
	 viewBox="0 54.65 493.547 272" enable-background="new 0 54.65 493.547 272" xml:space="preserve">
<g id="layer1" transform="translate(650.82884,-1033.3783)">
	<g id="g2642" transform="translate(17.716537,17.730397)">
		<path id="path7598" fill="#EC1D24" d="M-425.913,1186.554c0-3.455-2.673-7.236-6.128-7.236h25.619
			c-3.455,0-6.128,3.781-6.128,7.236v63.497c0,3.52,2.673,7.235,6.128,7.235h-25.619c3.455,0,6.128-3.716,6.128-7.235V1186.554"/>
		<path id="path7600" fill="#EC1D24" d="M-563.197,1219.216h17.861c3.455,0,6.714,2.673,6.714,6.128l-0.065-14.017h-24.511v-24.12
			h23.793c3.521,0,6.715,2.673,6.715,6.193v-14.082h-49.999c3.52,0,6.127,3.781,6.127,7.236v63.497c0,3.52-2.607,7.235-6.127,7.235
			h25.684c-3.52,0-6.193-3.716-6.193-7.235V1219.216"/>
		<path id="path7602" fill="#EC1D24" d="M-511.895,1236.361c0,8.083,6.584,15.124,14.667,15.124c8.083,0,14.732-7.171,14.732-15.255
			v-49.676c0-3.455-2.673-7.236-6.193-7.236h25.684c-3.52,0-6.192,3.781-6.192,7.236v48.307c0,15.45-12.451,24.513-27.966,24.513
			c-15.514,0-28.095-9.062-28.095-24.513v-48.307c0-3.455-2.672-7.236-6.127-7.236h25.618c-3.52,0-6.127,3.781-6.127,7.236V1236.361
			"/>
		<path id="path7604" fill="#EC1D24" d="M-440.906,1186.554c0-3.455,2.673-7.236,6.192-7.236h-25.684
			c3.521,0,6.193,3.781,6.193,7.236v79.338c0,0-0.261,14.146-11.342,22.165c0,0,24.706-3.521,24.706-26.859L-440.906,1186.554"/>
		<path id="path7606" fill="#EC1D24" d="M-281.198,1236.361c0,8.083,6.584,15.124,14.732,15.124c8.083,0,14.667-7.171,14.667-15.255
			v-49.676c0-3.455-2.672-7.236-6.127-7.236h25.617c-3.453,0-6.127,3.781-6.127,7.236v48.307c0,15.45-12.516,24.513-27.965,24.513
			c-15.514,0-28.16-9.062-28.16-24.513l0.064-48.307c0-3.455-2.672-7.236-6.192-7.236h25.683c-3.52,0-6.192,3.781-6.192,7.236
			V1236.361"/>
		<path id="path7608" fill="#EC1D24" d="M-306.751,1192.095c-4.173-7.17-14.016-6.258-14.016-6.258
			c-15.646,0-14.928,12.256-14.928,12.256s-1.043,6.128,6.779,10.365l15.71,8.54c15.124,8.345,13.363,20.145,13.363,20.145
			s0.652,22.164-30.963,22.164c0,0-9.192,0.262-14.407-1.694l-4.563-14.603c4.693,7.366,19.101,8.475,19.101,8.475
			c17.731-0.848,17.861-13.234,17.861-13.234s0.847-5.346-6.128-9.257l-15.645-8.54c-16.297-8.931-14.406-20.926-14.406-20.926
			s-0.392-21.774,27.639-21.774c0,0,12.582,0.326,14.603,2.347V1192.095"/>
		<path id="path7610" fill="#EC1D24" d="M-401.859,1179.318l-4.237,14.343c3.39-6.389,8.8-6.454,8.8-6.454h13.56v62.845
			c0,3.52-2.672,7.235-6.128,7.235h25.619c-3.455,0-6.127-3.716-6.127-7.235v-62.845h11.342c3.52,0,6.322,2.803,6.322,6.323
			l4.172-14.212H-401.859"/>
		<path id="path7612" fill="#EC1D24" d="M-429.173,1152.199c2.804,2.803,6.649,4.498,10.887,4.498
			c8.539,0,15.448-6.91,15.448-15.385c0-8.54-6.909-15.451-15.448-15.451c0,0-11.864-1.107-17.21,14.082v-11.409
			c3.977-5.215,10.17-8.997,17.21-8.997c12.06,0,21.771,9.714,21.771,21.774c0,11.995-9.712,21.708-21.771,21.708
			c-5.997,0-11.408-2.412-15.384-6.323l-7.497-8.41c-2.021-2.086-4.824-3.325-7.953-3.325c-6.258,0-11.277,5.02-11.277,11.278
			c0,6.258,5.02,11.278,11.277,11.278c0,0,8.344,1.108,13.624-9.192v9.127c-3.259,3.911-8.148,6.389-13.624,6.389
			c-9.713,0-17.601-7.888-17.601-17.602c0-9.714,7.888-17.602,17.601-17.602c4.89,0,9.257,1.955,12.451,5.15L-429.173,1152.199"/>
	</g>
</g>
</svg>
