<?xml version="1.0" encoding="utf-8"?>
<!-- Generator: Adobe Illustrator 16.0.0, SVG Export Plug-In . SVG Version: 6.00 Build 0)  -->
<!DOCTYPE svg PUBLIC "-//W3C//DTD SVG 1.1//EN" "http://www.w3.org/Graphics/SVG/1.1/DTD/svg11.dtd">
<svg version="1.1" id="Layer_1" xmlns="http://www.w3.org/2000/svg" xmlns:xlink="http://www.w3.org/1999/xlink" x="0px" y="0px" viewBox="0 0 612 314" enable-background="new 0 0 612 314" xml:space="preserve">
<path d="M54.661,202.543c0.689-0.084,1.379-0.242,2.069-0.242c91.684-0.011,183.368-0.01,275.053-0.01
	c2.375,0,2.364,0.002,2.38,2.393c0.033,5.172,0.078,10.343,0.118,15.514c-93.207,0-186.413,0-279.62,0
	C54.661,214.312,54.661,208.428,54.661,202.543z M54.661,116.397c0.705,0.011,1.411,0.031,2.116,0.031c85.124,0,170.249,0,255.375,0
	c0.471,0,0.943-0.041,1.408,0.009c1.121,0.114,1.564-0.298,1.555-1.482c-0.052-5.176-0.054-10.354-0.002-15.53
	c0.011-1.187-0.439-1.591-1.557-1.489c-0.522,0.047-1.058,0.006-1.587,0.006c-84.654,0.002-169.308,0-253.961,0.006
	c-1.116,0-2.232,0.06-3.348,0.092C54.661,104.157,54.661,110.277,54.661,116.397z"/>
<path d="M391.124,220.195c0-5.875,0-11.749,0-17.806c0.711-0.036,1.339-0.095,1.966-0.096c46.718-0.004,93.437,0.005,140.152-0.042
	c1.762-0.002,2.297,0.41,2.257,2.237c-0.114,5.231,0.001,10.47,0.025,15.704C487.391,220.195,439.258,220.195,391.124,220.195z"/>
<path fill="#F58220" d="M348.404,220.195c-0.646-0.491-1.288-0.98-1.931-1.478c-3.112-2.405-4.866-5.487-4.856-9.515
	c0.029-11.94,0.05-23.883,0.025-35.824c-0.033-18.174-0.107-36.349-0.168-54.522c-0.007-2.323-0.018-2.346-2.365-2.352
	c-4.529-0.013-9.061-0.052-13.588,0.021c-1.538,0.024-2.188-0.341-2.147-2.058c0.114-5.056,0.078-10.117,0.017-15.174
	c-0.015-1.311,0.422-1.76,1.722-1.747c4.821,0.05,9.646-0.03,14.47,0.047c1.616,0.025,2.135-0.532,2.1-2.141
	c-0.094-4.233,0.034-8.472-0.062-12.705c-0.035-1.576,0.479-1.965,2.015-1.946c6.874,0.083,13.749,0.036,20.808,0.036
	c0.044,0.736,0.111,1.36,0.112,1.985c0.012,4.117,0.005,8.234,0.005,12.353c0,2.38,0,2.388,2.464,2.39
	c4.471,0.008,8.94,0.064,13.409-0.027c1.645-0.034,2.279,0.393,2.241,2.152c-0.106,4.939-0.074,9.883-0.011,14.822
	c0.018,1.365-0.396,1.84-1.806,1.826c-4.765-0.041-9.528,0.102-14.291,0.053c-1.54-0.014-2.036,0.479-2.034,2.022
	c0.035,27.177,0.036,54.354-0.004,81.53c-0.003,1.604,0.598,1.99,2.081,1.966c4.408-0.076,8.821-0.026,13.232-0.026
	c2.697-0.002,2.688-0.002,2.702,2.611c0.029,5.231,0.07,10.465,0.107,15.696C371.235,220.195,359.819,220.195,348.404,220.195z
	 M54.661,158.41c0.535,1.04,0.995,2.128,1.62,3.109c2.317,3.639,5.653,5.592,9.98,5.604c13.691,0.035,27.382,0.012,41.073,0.017
	c2.327,0,2.329,0.009,2.337,2.366c0.004,1.177,0.001,2.353,0.001,3.525c0,2.922,0,2.928-2.839,2.929
	c-8.168,0.005-16.335,0.005-24.503,0.006c-8.461,0.001-16.922-0.002-25.384,0.006c-0.762,0.001-1.523,0.062-2.285,0.094
	c0,5.53,0,11.062,0,16.594c21.65-0.009,43.301-0.015,64.951-0.036c1.172-0.001,2.36-0.053,3.513-0.245
	c5.521-0.922,9.724-5.778,9.77-11.347c0.051-6.061,0.058-12.12-0.003-18.181c-0.063-6.359-5.281-11.511-11.646-11.543
	c-6.413-0.032-12.826-0.011-19.238-0.012c-7.061-0.001-14.12-0.027-21.18,0.021c-1.377,0.01-1.909-0.448-1.833-1.837
	c0.088-1.585,0.017-3.177,0.019-4.765c0.003-2.791,0.005-2.787,2.81-2.787c16.415,0.002,32.829-0.018,49.243,0.037
	c1.483,0.004,1.916-0.406,1.872-1.875c-0.102-3.41-0.013-6.824-0.039-10.236c-0.027-3.598,0.485-3.239-3.155-3.241
	c-18.768-0.015-37.536-0.011-56.304-0.007c-2.588,0.002-5.178-0.012-7.764,0.07c-3.086,0.097-5.801,1.256-7.773,3.608
	c-1.296,1.546-2.178,3.439-3.244,5.179C54.661,143.111,54.661,150.76,54.661,158.41z M280.671,131.967
	c-0.285-0.295-0.548-0.609-0.816-0.922c-2.35-2.712-5.269-4.354-8.898-4.373c-10.176-0.043-20.355-0.139-30.528,0.037
	c-7.033,0.122-11.607,4.981-11.625,12.018c-0.042,17.354,0.005,34.709-0.047,52.062c-0.004,1.546,0.56,1.853,1.947,1.838
	c5.882-0.06,11.767-0.104,17.647,0.024c1.87,0.041,2.218-0.592,2.211-2.311c-0.062-15.471-0.016-30.94-0.062-46.413
	c-0.004-1.535,0.461-2.069,2.009-2.047c4.822,0.072,9.646,0.023,14.471,0.027c2.642,0.002,2.648,0.006,2.649,2.645
	c0.002,15.354,0.02,30.709-0.028,46.062c-0.005,1.526,0.42,2.042,1.991,2.021c5.822-0.085,11.646-0.031,17.471-0.034
	c2.535-0.001,2.539-0.005,2.539-2.47c0-15.295-0.002-30.59-0.001-45.885c0-2.316,0.028-2.343,2.381-2.343
	c4.589,0,9.178,0.002,13.766,0.008c2.494,0.002,2.51,0.007,2.511,2.56c0.006,15.354,0.026,30.708-0.024,46.061
	c-0.007,1.605,0.444,2.126,2.079,2.104c6.117-0.087,12.235-0.067,18.354-0.008c1.406,0.015,1.968-0.343,1.961-1.857
	c-0.025-6.059,0.101-12.114,0.113-18.172c0.021-11.178,0.044-22.354-0.009-33.53c-0.036-7.57-4.485-12.287-11.929-12.394
	c-9.881-0.142-19.767-0.114-29.646,0.041c-1.977,0.03-4.097,0.664-5.862,1.578c-1.648,0.854-2.912,2.447-4.386,3.752
	C280.887,132.038,280.741,132.038,280.671,131.967z M446.912,192.606c2.438,0,2.443-0.005,2.445-2.36
	c0.003-3.94,0.002-7.884,0.001-11.826c-0.001-2.42-0.003-2.43-2.415-2.431c-15.887-0.004-31.771-0.002-47.655-0.003
	c-0.589,0-1.179-0.029-1.766-0.004c-1.108,0.048-1.61-0.435-1.578-1.57c0.044-1.588,0.002-3.178,0.005-4.766
	c0.005-2.499,0.008-2.506,2.538-2.506c16.236-0.003,32.477-0.024,48.714,0.032c1.678,0.007,2.211-0.433,2.192-2.155
	c-0.083-8.589-0.037-17.179-0.034-25.77c0.002-7.502-4.85-12.722-12.342-12.772c-17.002-0.114-34.006-0.113-51.009,0.003
	c-7.76,0.053-12.769,5.422-12.77,13.204c-0.001,13.415-0.011,26.829,0.005,40.242c0.009,7.653,5.078,12.674,12.771,12.681
	c10.062,0.007,20.121,0.001,30.184,0.001C426.438,192.607,436.675,192.607,446.912,192.606z M424.903,141.881
	c1.087-0.011,1.663,0.244,1.636,1.448c-0.048,2.114-0.041,4.23-0.008,6.347c0.017,1.061-0.451,1.468-1.482,1.466
	c-9.227-0.017-18.453-0.021-27.68-0.007c-1.095,0.003-1.431-0.536-1.42-1.527c0.021-1.881,0.08-3.766-0.025-5.641
	c-0.085-1.527,0.455-2.086,2.007-2.061c4.523,0.072,9.052,0.024,13.574,0.024c0-0.01,0-0.02,0-0.029
	C415.972,141.9,420.438,141.928,424.903,141.881z M216.747,192.416c1.737,0.013,2.324-0.395,2.316-2.237
	c-0.072-16.235-0.037-32.476-0.055-48.712c-0.001-1.349-0.066-2.711-0.262-4.043c-0.959-6.565-5.732-10.685-12.362-10.701
	c-5.53-0.015-11.061-0.002-16.591-0.002c-15.178,0-30.356,0.024-45.535-0.037c-1.654-0.008-2.099,0.502-2.056,2.093
	c0.102,3.704,0.109,7.414-0.007,11.116c-0.051,1.6,0.499,1.969,2.011,1.959c10.648-0.057,21.297-0.029,31.945-0.027
	c6.001,0.001,12.002,0.032,18.002-0.018c1.333-0.01,1.926,0.365,1.887,1.796c-0.054,1.995,0.108,3.995,0.124,5.993
	c0.019,2.433-0.006,2.438-2.457,2.438c-12.943,0.001-25.886-0.002-38.828-0.005c-7.307-0.002-12.302,4.981-12.314,12.306
	c-0.009,5.235-0.002,10.473-0.003,15.708c0,7.393,4.867,12.314,12.237,12.327c10.177,0.019,20.355,0.005,30.533,0.007
	C195.803,192.378,206.275,192.341,216.747,192.416z M167.547,177.262c-1.491,0.026-2.167-0.37-2.075-1.97
	c0.107-1.874,0.048-3.76,0.022-5.64c-0.014-1.04,0.434-1.476,1.48-1.474c9.226,0.018,18.452,0.021,27.679-0.004
	c1.185-0.003,1.535,0.557,1.519,1.621c-0.028,1.938-0.051,3.879,0.005,5.816c0.036,1.218-0.439,1.649-1.657,1.637
	c-4.584-0.049-9.168-0.021-13.751-0.021C176.361,177.234,171.953,177.184,167.547,177.262z M499.41,192.703
	c9.001,0,18.002,0.05,27.003-0.018c6.364-0.047,11.36-4.852,11.389-10.886c0.03-6.41-0.06-12.821-0.04-19.233
	c0.003-1.249-0.328-1.785-1.688-1.773c-6.236,0.058-12.475,0.062-18.708-0.004c-1.404-0.014-1.659,0.57-1.644,1.791
	c0.055,3.941-0.015,7.884,0.033,11.824c0.018,1.271-0.418,1.793-1.729,1.787c-9.062-0.034-18.12-0.039-27.182,0
	c-1.337,0.006-1.732-0.531-1.729-1.779c0.027-10.178,0.033-20.354,0.01-30.533c-0.003-1.242,0.363-1.789,1.71-1.783
	c9.061,0.043,18.12,0.037,27.18,0.004c1.283-0.004,1.78,0.438,1.749,1.75c-0.066,2.882,0.024,5.766-0.041,8.646
	c-0.026,1.237,0.274,1.8,1.654,1.787c6.235-0.059,12.472-0.046,18.707-0.005c1.203,0.008,1.682-0.382,1.669-1.618
	c-0.044-4.941,0.086-9.886-0.047-14.824c-0.169-6.271-5.09-11.215-11.342-11.242c-17.884-0.08-35.771-0.066-53.652-0.004
	c-5.597,0.021-9.646,3.125-11.203,8.512c-0.598,2.066-0.957,4.274-0.978,6.424c-0.109,11.587-0.081,23.177-0.097,34.765
	c-0.001,1.294,0.046,2.588,0.047,3.881c0.005,7.52,4.734,12.431,12.277,12.507c8.883,0.092,17.769,0.021,26.649,0.021
	C499.41,192.698,499.41,192.701,499.41,192.703z"/>
<path d="M463.336,116.428c-23.352,0-46.703-0.02-70.055,0.039c-1.752,0.004-2.32-0.387-2.267-2.229
	c0.146-4.761,0.127-9.529,0.008-14.291c-0.045-1.69,0.526-2.038,2.095-2.036c29.231,0.041,58.467,0.028,87.701,0.028
	c17.469,0,34.938,0.026,52.406-0.035c1.753-0.006,2.327,0.394,2.271,2.238c-0.145,4.76-0.131,9.529-0.006,14.291
	c0.045,1.707-0.557,2.027-2.104,2.023C510.039,116.417,486.688,116.43,463.336,116.428z"/>
</svg>
