<?xml version="1.0" encoding="utf-8"?>
<!-- Generator: Adobe Illustrator 16.0.0, SVG Export Plug-In . SVG Version: 6.00 Build 0)  -->
<!DOCTYPE svg PUBLIC "-//W3C//DTD SVG 1.1//EN" "http://www.w3.org/Graphics/SVG/1.1/DTD/svg11.dtd">
<svg version="1.1" id="Layer_1" xmlns="http://www.w3.org/2000/svg" xmlns:xlink="http://www.w3.org/1999/xlink" x="0px" y="0px" viewBox="0 0 288 144" enable-background="new 0 0 288 144" xml:space="preserve">
<g id="_990596000">
	<g>
		<g>
			<g>
				<path fill="#ED3237" d="M139.101,74.303c0,9.216-6.552,16.057-15.768,16.057c-9.432,0-15.768-6.553-15.768-16.057
					c0-9,6.336-16.056,15.768-16.056C132.549,58.247,139.101,65.086,139.101,74.303z M130.965,74.303
					c0-5.4-2.088-10.152-7.632-10.152c-5.544,0-7.632,4.752-7.632,10.152c0,5.4,2.16,10.152,7.632,10.152
					C128.877,84.455,130.965,79.703,130.965,74.303z"/>
				<path fill="#ED3237" d="M83.661,71.422c-0.36-4.176-1.944-7.488-4.464-9.792c-2.448-2.16-5.76-3.384-9.864-3.384
					c-3.024,0-6.84,1.008-9.648,3.312c-3.384,2.736-5.976,7.056-5.976,12.889c0,4.967,1.656,9,4.536,11.735
					c2.88,2.664,6.912,4.104,11.952,4.104c4.032,0,8.928-1.513,11.016-2.809c0.72-0.432,0.936-0.648,0.792-1.367l-1.296-3.673
					c-0.144-0.575-0.792-0.792-1.368-0.504c-0.936,0.433-1.584,0.792-2.52,1.151c-1.8,0.648-3.672,1.152-5.472,1.152
					c-3.744,0-5.904-1.008-7.488-2.879c-1.008-1.225-1.656-2.736-1.8-4.465h20.736c0.72,0,1.08-0.504,1.08-1.367v-1.513
					c0-0.72,0-1.872-0.072-2.52L83.661,71.422z M76.245,71.279c0,0-9,0-14.256,0c0.144-1.008,0.432-2.016,0.936-2.952
					c1.296-2.592,3.672-4.176,6.696-4.176c4.104,0,6.696,2.808,6.696,6.984v0.216L76.245,71.279z"/>
				<path fill="#ED3237" d="M91.077,62.71c2.376-3.024,5.976-4.392,11.952-4.392c1.44,0,3.096,0.144,4.248,0.432
					c0.72,0.144,0.792,0.72,0.72,1.44l-0.72,3.456c-0.144,0.648-0.36,0.864-0.864,0.864c-0.072,0-0.216,0-0.432-0.072
					c-0.504-0.072-1.872-0.216-2.52-0.216c-2.952,0-4.392,0.72-5.472,1.872c-1.224,1.296-1.296,3.24-1.296,6.769
					c0,0.791,0,15.479,0,15.479c0,1.008-0.432,1.584-1.512,1.584h-4.752c-1.008,0-1.44-0.505-1.512-1.584c0,0,0-13.464,0-15.192
					c0-5.544,0.288-8.136,2.088-10.44H91.077z"/>
				<path fill="#ED3237" d="M38.085,69.119c1.08-1.08,3.528-4.176,6.264-9.288c0.432-0.864,0.864-1.08,1.512-1.08h5.112
					c0.432,0,1.008,0.216,0.72,1.08c-2.016,5.976-6.624,11.232-9.216,13.968c2.808,2.664,7.704,8.855,10.008,14.976
					c0.216,0.576,0.072,1.152-1.08,1.152h-6.048c-0.648,0-1.152-0.072-1.512-1.08c-1.512-3.744-3.888-7.704-6.552-10.296
					c-2.952,3.096-5.184,6.984-6.696,10.296c-0.36,0.792-0.72,1.08-1.512,1.08h-5.544c-0.36,0-0.72-0.433-0.504-1.08
					c1.656-4.536,4.968-10.224,9.72-14.472c-3.672-4.464-7.272-9.937-8.712-14.544c-0.216-0.72,0.144-1.08,0.648-1.08h6.552
					c0.72,0,1.08,0.288,1.44,1.08c1.584,3.744,3.816,7.344,5.472,9.288H38.085z"/>
				<path fill="#ED3237" d="M155.229,69.119c1.079-1.08,3.527-4.176,6.264-9.288c0.432-0.864,0.863-1.08,1.512-1.08h5.111
					c0.433,0,1.009,0.216,0.721,1.08c-2.016,5.976-6.624,11.232-9.217,13.968c2.809,2.664,7.705,8.855,10.009,14.976
					c0.216,0.576,0.071,1.152-1.08,1.152h-6.048c-0.648,0-1.152-0.072-1.512-1.08c-1.513-3.744-3.889-7.704-6.553-10.296
					c-2.951,3.096-5.184,6.984-6.695,10.296c-0.36,0.792-0.721,1.08-1.512,1.08h-5.545c-0.36,0-0.72-0.433-0.504-1.08
					c1.656-4.536,4.969-10.224,9.648-14.472c-3.672-4.464-7.272-9.937-8.712-14.544c-0.216-0.72,0.144-1.08,0.648-1.08h6.553
					c0.719,0,1.08,0.288,1.439,1.08C151.341,63.575,153.573,67.175,155.229,69.119z"/>
			</g>
			<g>
				<g>
					
						<radialGradient id="SVGID_1_" cx="-158.5034" cy="462.7129" r="0.4905" gradientTransform="matrix(64.656 0 0 -64.656 10467.1309 29993.0859)" gradientUnits="userSpaceOnUse">
						<stop  offset="0" style="stop-color:#FFFFFF"/>
						<stop  offset="0.8392" style="stop-color:#FFFFFF"/>
						<stop  offset="1" style="stop-color:#B2B2B2"/>
						<stop  offset="1" style="stop-color:#B2B2B2"/>
					</radialGradient>
					<path fill="url(#SVGID_1_)" d="M251.276,75.887c0-17.784-14.543-32.328-32.328-32.328c-17.783,0-32.328,14.544-32.328,32.328
						c0,17.783,14.545,32.328,32.328,32.328C236.733,108.215,251.276,93.67,251.276,75.887z"/>
					<g>
						<path fill="#FFFFFF" d="M196.485,61.703c7.775-12.312,24.191-15.984,36.647-8.136c12.456,7.848,16.2,24.192,8.424,36.576
							c-7.776,12.312-24.192,15.984-36.647,8.137C192.452,90.431,188.709,74.086,196.485,61.703z"/>
						<path fill="#FEFEFE" d="M196.772,61.703c7.633-12.096,23.832-15.624,36.145-7.848s16.056,23.904,8.424,36
							c-7.632,12.097-23.832,15.624-36.072,7.849c-12.312-7.776-16.056-23.904-8.424-35.929L196.772,61.703z"/>
						<path fill="#FDFDFD" d="M197.133,61.703c7.487-11.88,23.472-15.336,35.64-7.632c12.168,7.704,15.912,23.616,8.424,35.496
							c-7.487,11.881-23.399,15.264-35.567,7.561c-12.168-7.705-15.983-23.545-8.496-35.353V61.703z"/>
						<path fill="#FCFCFC" d="M197.493,61.703c7.344-11.592,23.184-15.048,35.207-7.416c12.024,7.632,15.769,23.329,8.425,34.92
							c-7.345,11.592-23.04,14.904-35.064,7.271c-12.024-7.632-15.84-23.184-8.495-34.776H197.493z"/>
						<path fill="#FBFBFB" d="M197.78,61.703c7.201-11.376,22.824-14.688,34.705-7.2c11.879,7.488,15.551,23.041,8.424,34.416
							c-7.2,11.377-22.68,14.545-34.561,6.984C194.469,88.414,190.653,73.078,197.78,61.703z"/>
						<path fill="#FAFAFA" d="M198.141,61.703c7.056-11.16,22.464-14.4,34.2-6.984s15.408,22.752,8.352,33.84
							c-7.056,11.16-22.248,14.184-34.056,6.695c-11.735-7.416-15.624-22.463-8.567-33.624L198.141,61.703z"/>
						<path fill="#F9F9F9" d="M198.501,61.703c6.912-10.872,22.104-14.112,33.768-6.768c11.664,7.344,15.264,22.464,8.352,33.336
							c-6.911,10.872-21.887,13.825-33.551,6.479C195.405,87.406,191.589,72.574,198.501,61.703z"/>
						<path fill="#F8F8F8" d="M198.86,61.774c6.769-10.656,21.816-13.752,33.265-6.48c11.521,7.272,15.12,22.104,8.352,32.833
							c-6.768,10.656-21.528,13.465-33.048,6.191c-11.52-7.271-15.336-21.816-8.641-32.472L198.86,61.774z"/>
						<path fill="#F7F7F7" d="M199.149,61.774c6.551-10.44,21.455-13.464,32.832-6.264c11.375,7.2,14.976,21.815,8.352,32.256
							s-21.168,13.104-32.545,5.903C196.413,86.471,192.524,72.214,199.149,61.774z"/>
						<path fill="#F6F6F6" d="M199.509,61.774c6.408-10.224,21.096-13.176,32.328-6.048s14.76,21.527,8.352,31.752
							s-20.736,12.672-31.968,5.617C196.989,85.967,193.101,71.999,199.509,61.774z"/>
						<path fill="#F5F5F5" d="M199.868,61.774c6.265-9.936,20.736-12.816,31.896-5.832c11.088,6.984,14.616,21.24,8.352,31.176
							c-6.264,9.936-20.375,12.383-31.463,5.328c-11.088-6.984-14.977-20.737-8.713-30.745L199.868,61.774z"/>
						<path fill="#F4F4F4" d="M200.157,61.774c6.119-9.72,20.447-12.528,31.392-5.616s14.472,20.953,8.353,30.671
							c-6.121,9.721-20.017,12.025-30.961,5.041c-10.943-6.912-14.904-20.449-8.711-30.168L200.157,61.774z"/>
						<path fill="#F3F3F3" d="M200.517,61.774c5.977-9.504,20.088-12.24,30.889-5.328c10.799,6.84,14.328,20.665,8.352,30.168
							s-19.656,11.592-30.456,4.752C198.429,84.527,194.541,71.279,200.517,61.774z"/>
						<path fill="#F2F2F2" d="M200.877,61.774c5.832-9.216,19.728-11.88,30.456-5.112c10.728,6.768,14.184,20.376,8.352,29.591
							c-5.832,9.217-19.224,11.232-29.951,4.537c-10.729-6.769-14.617-19.729-8.785-28.944L200.877,61.774z"/>
						<path fill="#F1F1F1" d="M201.237,61.774c5.688-9,19.367-11.592,29.951-4.896c10.584,6.696,13.969,20.088,8.28,29.088
							s-18.864,10.871-29.448,4.248c-10.584-6.696-14.544-19.368-8.855-28.368L201.237,61.774z"/>
						<path fill="#F0F0F0" d="M201.524,61.774c5.545-8.784,19.08-11.232,29.521-4.68c10.44,6.552,13.823,19.8,8.28,28.512
							c-5.545,8.784-18.504,10.513-28.944,3.96C199.94,83.015,195.981,70.559,201.524,61.774z"/>
						<path fill="#EFEFEF" d="M201.885,61.847c5.399-8.568,18.72-10.944,29.017-4.464c10.295,6.48,13.68,19.439,8.279,28.008
							s-18.145,10.152-28.439,3.672c-10.297-6.48-14.256-18.72-8.928-27.216H201.885z"/>
						<path fill="#EEEEEE" d="M202.245,61.847c5.256-8.28,18.359-10.656,28.512-4.248c10.152,6.408,13.536,19.151,8.279,27.504
							c-5.256,8.28-17.711,9.792-27.863,3.384S196.989,70.126,202.245,61.847z"/>
						<path fill="#EDEDED" d="M202.532,61.847c5.113-8.064,18-10.296,28.08-3.96c10.008,6.336,13.393,18.863,8.28,26.928
							s-17.352,9.432-27.36,3.096c-10.008-6.336-14.039-18-8.928-26.063H202.532z"/>
						<path fill="#ECECEC" d="M202.893,61.847c4.968-7.848,17.712-10.008,27.576-3.744c9.937,6.264,13.248,18.576,8.28,26.425
							c-4.969,7.848-16.992,9.072-26.856,2.879c-9.936-6.264-13.896-17.64-9-25.488V61.847z"/>
						<path fill="#EBEBEB" d="M203.253,61.847c4.752-7.56,17.352-9.72,27.145-3.528c9.791,6.192,13.031,18.288,8.279,25.847
							c-4.824,7.561-16.561,8.713-26.352,2.593c-9.793-6.192-13.824-17.352-9-24.912H203.253z"/>
						<path fill="#EAEAEA" d="M203.541,61.847c4.608-7.344,16.991-9.36,26.64-3.312s12.889,18,8.28,25.344s-16.2,8.352-25.849,2.304
							C202.965,80.062,198.933,69.19,203.541,61.847z"/>
						<path fill="#E9E9E9" d="M203.901,61.847c4.463-7.128,16.631-9.072,26.135-3.096c9.505,5.976,12.744,17.712,8.281,24.84
							c-4.465,7.128-15.841,7.991-25.345,2.016S199.437,68.975,203.901,61.847z"/>
						<path fill="#E8E8E8" d="M204.261,61.847c4.32-6.84,16.344-8.784,25.704-2.88c9.36,5.904,12.601,17.424,8.208,24.264
							c-4.32,6.912-15.48,7.633-24.84,1.729c-9.36-5.904-13.465-16.272-9.072-23.185V61.847z"/>
						<path fill="#E7E7E7" d="M204.62,61.918c4.177-6.624,15.984-8.424,25.201-2.592c9.215,5.832,12.455,17.064,8.207,23.759
							c-4.176,6.625-15.047,7.273-24.336,1.441c-9.216-5.832-13.319-15.913-9.144-22.609H204.62z"/>
						<path fill="#E6E6E6" d="M204.909,61.918c4.031-6.408,15.623-8.136,24.768-2.376c9.072,5.76,12.24,16.776,8.208,23.184
							s-14.688,6.912-23.832,1.152c-9.071-5.76-13.176-15.625-9.144-22.032V61.918z"/>
						<path fill="#E6E6E6" d="M205.269,61.918c3.889-6.192,15.264-7.848,24.264-2.16s12.097,16.487,8.209,22.68
							c-3.889,6.192-14.328,6.552-23.256,0.937c-9-5.688-13.104-15.264-9.217-21.384V61.918z"/>
						<path fill="#E5E5E5" d="M205.629,61.918c3.744-5.904,14.976-7.488,23.76-1.944c8.856,5.544,11.952,16.2,8.208,22.104
							c-3.744,5.904-13.968,6.192-22.752,0.648C205.989,77.183,201.885,67.823,205.629,61.918z"/>
						<path fill="#E4E4E4" d="M205.917,61.918c3.6-5.688,14.615-7.2,23.328-1.728c8.712,5.472,11.808,15.912,8.207,21.601
							c-3.6,5.688-13.535,5.832-22.248,0.359c-8.711-5.472-12.815-14.544-9.215-20.232H205.917z"/>
						<path fill="#E3E3E3" d="M206.276,61.918c3.457-5.472,14.256-6.912,22.824-1.512c8.568,5.4,11.664,15.625,8.208,21.095
							c-3.456,5.473-13.176,5.473-21.743,0.072C206.997,76.175,202.821,67.391,206.276,61.918z"/>
						<path fill="#E2E2E2" d="M206.637,61.918c3.312-5.184,13.896-6.552,22.392-1.224c8.424,5.328,11.448,15.336,8.209,20.52
							c-3.312,5.184-12.816,5.111-21.24-0.217s-12.6-13.896-9.288-19.08H206.637z"/>
						<path fill="#E1E1E1" d="M206.925,61.918c3.168-4.968,13.607-6.264,21.889-1.008c8.279,5.256,11.303,15.048,8.207,20.016
							c-3.168,4.968-12.455,4.752-20.736-0.505C208.005,75.166,203.829,66.887,206.925,61.918z"/>
						<path fill="#E0E0E0" d="M207.284,61.991c3.024-4.752,13.248-5.976,21.385-0.792c8.136,5.184,11.16,14.76,8.136,19.44
							c-3.024,4.752-12.024,4.393-20.231-0.721c-8.137-5.184-12.385-13.175-9.36-17.927H207.284z"/>
						<path fill="#DFDFDF" d="M207.646,61.991c2.807-4.536,12.887-5.616,20.951-0.576s11.016,14.4,8.137,18.936
							c-2.809,4.536-11.664,4.032-19.729-1.008s-12.24-12.816-9.432-17.352H207.646z"/>
						<path fill="#DEDEDE" d="M208.005,61.991c2.664-4.248,12.527-5.328,20.447-0.36c7.92,4.968,10.873,14.112,8.137,18.432
							c-2.664,4.248-11.305,3.672-19.152-1.296C209.517,73.799,205.341,66.239,208.005,61.991z"/>
						<path fill="#DDDDDD" d="M208.293,61.991c2.521-4.032,12.239-5.04,20.016-0.072c7.776,4.896,10.656,13.824,8.136,17.856
							c-2.52,4.032-10.871,3.312-18.647-1.584s-12.024-12.168-9.433-16.2H208.293z"/>
						<path fill="#DCDCDC" d="M208.653,61.991c2.375-3.816,11.879-4.68,19.512,0.144c7.632,4.824,10.512,13.535,8.136,17.352
							s-10.513,2.952-18.144-1.871C210.524,72.791,206.276,65.807,208.653,61.991z"/>
						<path fill="#DBDBDB" d="M209.013,61.991c2.232-3.528,11.52-4.392,19.008,0.36s10.368,13.248,8.137,16.776
							c-2.232,3.527-10.152,2.592-17.641-2.16c-7.488-4.752-11.736-11.448-9.504-15.048V61.991z"/>
						<path fill="#DADADA" d="M209.301,61.991c2.088-3.312,11.16-4.104,18.576,0.576c7.344,4.68,10.224,12.96,8.136,16.271
							c-2.088,3.312-9.792,2.232-17.136-2.447C211.532,71.71,207.213,65.303,209.301,61.991z"/>
						<path fill="#D9D9D9" d="M209.661,61.991c1.943-3.096,10.871-3.744,18.072,0.792c7.199,4.536,10.08,12.672,8.135,15.696
							c-1.943,3.096-9.359,1.872-16.631-2.664C212.036,71.279,207.717,65.015,209.661,61.991z"/>
					</g>
				</g>
				<g>
					<path fill="#D92231" d="M251.276,75.887c0-17.784-14.543-32.328-32.328-32.328c-17.783,0-32.328,14.544-32.328,32.328
						c0,17.783,14.545,32.328,32.328,32.328C236.733,108.215,251.276,93.67,251.276,75.887z"/>
					
						<linearGradient id="SVGID_2_" gradientUnits="userSpaceOnUse" x1="4817" y1="-5529.7671" x2="5428.3555" y2="-4628.8076" gradientTransform="matrix(0.072 0 0 -0.072 -149.872 -289.7681)">
						<stop  offset="0" style="stop-color:#DF584E"/>
						<stop  offset="0.051" style="stop-color:#DE4E46"/>
						<stop  offset="0.1804" style="stop-color:#DA3036"/>
						<stop  offset="0.251" style="stop-color:#D92231"/>
						<stop  offset="0.4196" style="stop-color:#D92733"/>
						<stop  offset="0.5294" style="stop-color:#DA3337"/>
						<stop  offset="0.6314" style="stop-color:#DB4340"/>
						<stop  offset="0.7098" style="stop-color:#DF574C"/>
						<stop  offset="0.8" style="stop-color:#E26E5E"/>
						<stop  offset="0.8706" style="stop-color:#E78775"/>
						<stop  offset="0.9412" style="stop-color:#EDA594"/>
						<stop  offset="1" style="stop-color:#F4C5B7"/>
						<stop  offset="1" style="stop-color:#F4C5B7"/>
					</linearGradient>
					<path fill="url(#SVGID_2_)" d="M249.62,75.959c0-16.92-13.752-30.672-30.672-30.672s-30.672,13.752-30.672,30.672
						c0,16.92,13.752,30.672,30.672,30.672S249.62,92.879,249.62,75.959z"/>
				</g>
				<g>
					
						<radialGradient id="SVGID_3_" cx="-158.0679" cy="462.5771" r="0.5" gradientTransform="matrix(60.192 0 0 -62.568 9747.3516 29016.2949)" gradientUnits="userSpaceOnUse">
						<stop  offset="0" style="stop-color:#FFFFFF"/>
						<stop  offset="0.1804" style="stop-color:#FCFCFC"/>
						<stop  offset="0.3216" style="stop-color:#F2F2F2"/>
						<stop  offset="0.5608" style="stop-color:#E3E3E3"/>
						<stop  offset="0.8" style="stop-color:#D1D1D1"/>
						<stop  offset="1" style="stop-color:#BFBFBF"/>
						<stop  offset="1" style="stop-color:#BFBFBF"/>
					</radialGradient>
					<path fill="url(#SVGID_3_)" d="M235.725,86.398c-5.976,12.312-15.552,20.305-23.112,21.168
						c-4.104-0.719-8.424-2.664-11.592-4.824c0.072,0,0.288,0.072,0.432,0.072c6.625,0,17.137-11.809,23.473-26.496
						c-8.352-6.336-19.008-11.375-29.016-11.375c-5.112,0-7.561,1.872-8.137,2.52c0.721-2.736,1.729-5.112,3.096-7.488
						c1.225-2.232,2.736-4.176,3.961-5.472c1.224-0.936,4.392-2.16,9.072-2.16c9.863,0,18.719,3.456,25.775,8.28
						c0.432-2.592,0.648-5.184,0.648-7.776c0-6.192-1.873-7.488-2.377-7.848c2.232,0.648,4.248,1.512,6.121,2.448
						c1.655,0.864,3.096,1.8,4.752,3.096c0.647,0.864,2.447,3.168,2.447,11.376c0,3.096-0.216,6.048-0.72,8.928
						c4.752,6.048,7.416,12.528,7.416,17.28c0,1.008-0.144,2.088-0.288,2.52c-1.656,3.24-3.889,6.191-6.552,8.713
						c0.071-0.217,0.216-0.721,0.216-1.441c0-2.951-2.232-7.127-5.76-11.447L235.725,86.398z"/>
					<g>
						
							<linearGradient id="SVGID_4_" gradientUnits="userSpaceOnUse" x1="4668.6016" y1="-4815.7656" x2="5593.8057" y2="-5249.4521" gradientTransform="matrix(0.072 0 0 -0.072 -149.872 -289.7681)">
							<stop  offset="0" style="stop-color:#595959"/>
							<stop  offset="0.051" style="stop-color:#727272"/>
							<stop  offset="0.1412" style="stop-color:#989898"/>
							<stop  offset="0.2392" style="stop-color:#B7B7B7"/>
							<stop  offset="0.3294" style="stop-color:#CFCFCF"/>
							<stop  offset="0.4314" style="stop-color:#E0E0E0"/>
							<stop  offset="0.549" style="stop-color:#EAEAEA"/>
							<stop  offset="0.6784" style="stop-color:#EDEDED"/>
							<stop  offset="0.7608" style="stop-color:#EAEAEA"/>
							<stop  offset="0.8196" style="stop-color:#E1E1E1"/>
							<stop  offset="0.8706" style="stop-color:#D1D1D1"/>
							<stop  offset="0.9216" style="stop-color:#BBBBBB"/>
							<stop  offset="0.9608" style="stop-color:#9F9F9F"/>
							<stop  offset="1" style="stop-color:#808080"/>
							<stop  offset="1" style="stop-color:#808080"/>
						</linearGradient>
						<path fill="url(#SVGID_4_)" fill-opacity="0.6392" d="M243.069,97.414c0.215-0.215,0.287-1.439,0.287-1.654
							c0-10.729-20.52-34.561-45.504-34.561c-5.688,0-8.136,2.016-8.783,2.52c-0.145,0.432-0.289,0.864-0.433,1.224
							c0.647-0.432,3.312-2.521,8.64-2.521c24.121,0,45.433,23.617,45.433,34.273c0,0.432-0.072,1.008-0.288,1.439
							C242.637,97.918,242.853,97.631,243.069,97.414z M192.237,57.743c0.863-0.792,3.888-2.304,9.359-2.304
							c25.128,0,44.928,23.112,44.928,36.073c0,0.359-0.072,1.15-0.359,1.799c0.216-0.359,0.504-0.791,0.648-1.08
							c0.359-0.576,0.359-1.584,0.359-2.088c0-13.248-19.584-35.928-44.784-35.928c-5.832,0-8.136,1.368-9.144,2.088
							C193.028,56.591,192.524,57.239,192.237,57.743z M190.868,59.903c0,0-0.647,1.08-0.791,1.44
							c0.72-0.576,3.312-2.304,8.711-2.304c27,0,45.793,24.696,45.793,35.137c0,0.504-0.072,1.295-0.36,1.727
							c0.36-0.432,0.647-0.791,0.792-1.08c0.359-0.576,0.288-1.656,0.288-2.016c0-10.225-18.36-35.136-45.433-35.136
							c-5.615,0-8.063,1.368-9.071,2.16L190.868,59.903z"/>
						
							<linearGradient id="SVGID_5_" gradientUnits="userSpaceOnUse" x1="5005.3672" y1="-5574.3906" x2="5431.1675" y2="-4651.814" gradientTransform="matrix(0.072 0 0 -0.072 -149.872 -289.7681)">
							<stop  offset="0" style="stop-color:#595959"/>
							<stop  offset="0.051" style="stop-color:#6C6C6C"/>
							<stop  offset="0.1608" style="stop-color:#939393"/>
							<stop  offset="0.2706" style="stop-color:#B4B4B4"/>
							<stop  offset="0.3882" style="stop-color:#CDCDCD"/>
							<stop  offset="0.5098" style="stop-color:#DFDFDF"/>
							<stop  offset="0.6392" style="stop-color:#EAEAEA"/>
							<stop  offset="0.7882" style="stop-color:#EDEDED"/>
							<stop  offset="0.8314" style="stop-color:#E9E9E9"/>
							<stop  offset="0.8706" style="stop-color:#DBDBDB"/>
							<stop  offset="0.9098" style="stop-color:#C5C5C5"/>
							<stop  offset="0.9608" style="stop-color:#A6A6A6"/>
							<stop  offset="1" style="stop-color:#808080"/>
							<stop  offset="1" style="stop-color:#808080"/>
						</linearGradient>
						<path fill="url(#SVGID_5_)" fill-opacity="0.8" d="M231.549,46.079c0.647,0.648,1.944,3.6,1.944,7.992
							c0,23.832-16.561,47.808-29.232,50.544c-0.359-0.217-0.648-0.361-1.08-0.576c9.648-1.08,29.232-24.192,29.232-50.4
							c0-4.032-1.152-7.128-2.088-7.992c0.359,0.144,0.791,0.288,1.224,0.504V46.079z M235.94,48.383
							c0.504,0.432,2.305,3.744,2.305,8.856c0,25.992-14.977,46.656-29.521,49.32c0.505,0.145,0.864,0.289,1.368,0.432
							c15.553-2.23,29.305-24.984,29.305-48.456c0-5.4-1.729-8.712-2.305-9.36c-0.359-0.216-0.721-0.432-1.152-0.72V48.383z
							 M233.061,46.799c0.433,0.432,2.232,3.744,2.232,9.216c0,24.552-16.56,46.872-29.521,49.392
							c0.432,0.217,0.793,0.361,1.08,0.504c14.76-2.879,29.52-26.136,29.52-49.319c0-4.608-1.512-8.496-2.231-9.072
							c-0.36-0.216-0.864-0.432-1.151-0.576L233.061,46.799z"/>
					</g>
				</g>
			</g>
		</g>
		<path fill="#373435" d="M259.845,53.999c0.792,0,1.439-0.072,1.439-0.936c0-0.72-0.647-0.864-1.295-0.864h-1.225v1.8H259.845z
			 M258.765,57.311h-0.863v-5.904h2.231c1.368,0,2.088,0.504,2.088,1.656c0,1.08-0.647,1.512-1.512,1.656l1.655,2.592h-1.008
			l-1.584-2.52h-1.008V57.311z M259.845,58.606c2.305,0,4.104-1.8,4.104-4.248c0-2.448-1.799-4.248-4.104-4.248
			c-2.304,0-4.176,1.8-4.176,4.248C255.669,56.807,257.469,58.606,259.845,58.606z M254.661,54.359c0-2.952,2.375-5.112,5.184-5.112
			s5.184,2.16,5.184,5.112c0,2.952-2.375,5.112-5.184,5.112S254.661,57.311,254.661,54.359z"/>
	</g>
</g>
</svg>
