<svg xmlns="http://www.w3.org/2000/svg" viewBox="32 0 525 125"><style>.a{fill:#FFF;}</style><path d="M486.8 50.1l0-0.7h-6.9l-0.3 4c-3.6-3.6-8-5.4-13.2-5.4 -0.4 0-0.8 0-1.2 0 -6.1 0.3-11.1 2.7-15 7.1 -7.5 8.5-7.1 22 0.7 30 4 4.2 9 6.3 14.4 6.3h0c4.9 0 9.8-1.8 14.3-5.3 0 1.4 0 2.5-0.1 3.5 -0.6 8-4.4 11.7-12.4 12 -0.4 0-0.7 0-1.1 0 -5.4 0-10.4-1.7-15.5-5.2l-0.6-0.4 -3.7 5.9 0.6 0.4c6.2 4.2 12.4 6.3 18.7 6.3 2.6 0 5.3-0.4 8-1.1 8.1-2.2 12.6-7.7 13.3-16.2 0.1-1.8 0.2-3.6 0.2-5.7 0-10.9 0-21.7 0-32.6 0-0.7-0.1-1.4-0.1-2.1C486.9 50.8 486.9 50.5 486.8 50.1zM472.1 83.3c-2.1 0.9-4.2 1.4-6.2 1.4 -3.1 0-6-1.1-8.6-3.3 -3.4-2.8-5.3-7.4-5.1-12.2 0.2-4.8 2.3-9.1 5.8-11.7 2.5-1.8 5.2-2.7 7.9-2.7 2.3 0 4.6 0.6 6.9 1.8 5.1 2.7 7.6 7.2 7.5 13.4C480.1 76.6 477.3 81 472.1 83.3z" class="a"/><path d="M436 80.8c0-0.6 0-1.2 0-1.9l0-7.5c0-5.9 0-11.7 0-17.6 0-0.9-0.1-1.7-0.1-2.5 0-0.4-0.1-0.8-0.1-1.2l0-0.7h-6.9l-0.4 3.8c-4.7-3.3-9.7-5.1-14.5-5.1 -5.6 0-10.7 2.3-14.6 6.8 -7.7 8.6-7.4 22.8 0.6 31 3.9 4 8.6 6.1 14.2 6.3 0.3 0 0.6 0 1 0 5.8 0 10.5-2 14.1-5.9 1.7 3.4 3.5 5.7 6.9 5.7 1.2 0 2.6-0.3 4.4-0.9l0.5-0.2v-4.6l-0.6-0.1C436.3 85.2 436.2 85 436 80.8zM414.9 85.2c-0.3 0-0.6 0-0.8 0 -5.5-0.3-10.3-4.1-12-9.6 -1.1-3.5-1.1-6.9-0.2-10.3 1.8-6.4 6.8-10.3 13.4-10.3 0.3 0 0.6 0 1 0 6.3 0.4 11.8 5.4 12.8 11.9 0.1 0.8 0.2 1.6 0.2 2.2 0 0.2 0 0.4 0 0.5C429.3 78.9 423.5 85.2 414.9 85.2z" class="a"/><path d="M294.3 48c-2.5 0-5.2 0.5-7.8 1.4 -7.4 2.6-11.9 8.6-13.1 17.3 -1.3 9.7 2.1 22 15.7 24.8 1.5 0.3 3.2 0.5 5 0.5 1.8 0 3.7-0.2 5.6-0.5 4.6-0.7 8.5-3.1 11.3-7l0.4-0.5 -4.7-4.4 -0.5 0.5c-3.5 3.5-7.3 5.3-11.4 5.3 -2.1 0-4.4-0.5-6.7-1.5 -4.3-1.8-6.6-5.3-7.3-11.6h32.4l0.1-0.6c0.9-6.6-1-13-5-17.6C304.6 50.2 299.7 48 294.3 48zM281.5 65.4c0-2.1 0.9-4.2 2.4-6 2.2-2.5 5.5-4.1 8.8-4.3 0.3 0 0.6 0 0.9 0 6.6 0 11.1 4.1 11.5 10.3H281.5L281.5 65.4z" class="a"/><path d="M518.7 48.2c-1-0.1-2-0.2-3-0.2 -9.1 0-16.6 5.6-19.2 14.2 -1 3.3-1.4 7-1.1 10.6 0.6 9.7 6.4 16.7 15.4 18.5 1.6 0.3 3.3 0.5 5.2 0.5 1.9 0 3.9-0.2 6.1-0.5 4.3-0.6 8.1-3 10.9-6.9l0.4-0.5 -4.7-4.5 -0.5 0.5c-3.5 3.6-7.4 5.4-11.5 5.4 -2.2 0-4.4-0.5-6.7-1.5 -4.3-1.8-6.5-5.3-7.3-11.7h32.8V71.5c0-0.5 0-1 0-1.5 0-0.9 0-1.6 0-2.4C534.8 57.1 528.3 49.5 518.7 48.2zM503.5 65.4c0.1-2.3 1.1-4.5 2.8-6.4 2.3-2.5 5.7-3.9 9.3-4l0.2 0c3.3 0 6.3 1.2 8.3 3.3 1.8 1.8 2.9 4.3 3 7.1L503.5 65.4 503.5 65.4z" class="a"/><path d="M379.3 33.9h-7.4v15.1l-4.5 0.4v6.4l4.6 0.5 0 3.7c0 2.1 0 4.2 0 6.3 0 4.7 0 9.6 0.1 14.3 0.2 7.2 4.3 11.7 10.7 11.7 1.6 0 3.3-0.3 5.1-0.9l0.5-0.2v-6l-2.8 0c-0.4 0-0.7 0-1.1 0 -3.7-0.1-4.9-1.2-5-4.6 -0.1-6.1-0.1-12.2 0-18.2 0-2 0-4 0-5.9 0 0 0.3-0.3 0.4-0.4h8.5v-6.9h-9.1V33.9z" class="a"/><path d="M340.6 48.6c-4.7 0-8.6 1.8-11.9 5.5l-0.3-4.7h-6.8v41.5h7.1c0 0 0-7.9 0-9.5 0-4.2 0-8.5 0-12.7 0-1.8 0.1-3.6 0.6-5.3 1.2-3.9 3.7-6.2 7.6-6.8 1.3-0.2 2.6-0.2 3.9-0.3 0.6 0 1.3 0 2-0.1l0.7 0v-7.3l-0.6-0.1C342.1 48.6 341.3 48.6 340.6 48.6z" class="a"/><path d="M359.7 82.4c0-0.5-0.1-1-0.2-1.7 -0.1-0.5 0-1.1 0-1.7 0-0.3 0-0.6 0-0.8v-5.7c0-6.2 0-12.4 0-18.6 0-0.8-0.1-1.7-0.1-2.5 0-0.4-0.1-0.8-0.1-1.3l0-0.7h-6.4l-0.2 0.4c0 0.1-0.1 0.2-0.1 0.3 -0.1 0.2-0.3 0.5-0.3 0.8 0 3 0 6.1 0 9.1 0 7.8 0 15.9 0.1 23.8 0.1 5.2 2.7 8.1 7.1 8.1 1.3 0 2.8-0.3 4.4-0.7l0.5-0.2v-5.4l-0.6-0.1C359.9 84.9 359.9 84.8 359.7 82.4z" class="a"/><path d="M355.9 43.8h0.1c1.2 0 2.4-0.5 3.3-1.4 0.9-0.9 1.4-2.1 1.4-3.3 0-2.4-2.3-4.7-4.8-4.7l-0.1 0c-2.4 0.1-4.5 2.2-4.6 4.5 -0.1 1.2 0.4 2.4 1.3 3.3C353.4 43.3 354.6 43.8 355.9 43.8z" class="a"/><path d="M542.1 91.6c-0.1-0.1-0.3-0.2-0.5-0.3 0.5 0 0.9-0.2 1.3-0.6 0.3-0.3 0.5-0.7 0.5-1.2 0-0.3-0.1-0.6-0.3-0.9 -0.2-0.3-0.4-0.5-0.8-0.6 -0.3-0.1-0.8-0.2-1.5-0.2h-2.1v6.1h1v-2.6h0.6c0.3 0 0.6 0.1 0.8 0.2 0.3 0.2 0.6 0.7 1 1.4l0.5 1h1.2l-0.7-1.2C542.6 92.2 542.3 91.8 542.1 91.6zM540.8 90.5h-1.2v-1.8h1.1c0.5 0 0.8 0 1 0.1 0.2 0.1 0.3 0.2 0.4 0.3s0.2 0.3 0.2 0.5c0 0.3-0.1 0.5-0.3 0.7C541.7 90.4 541.4 90.5 540.8 90.5z" class="a"/><path d="M546 88c-0.5-0.9-1.2-1.6-2.1-2.1 -0.9-0.5-1.8-0.7-2.8-0.7s-1.9 0.2-2.8 0.7c-0.9 0.5-1.6 1.2-2.1 2.1 -0.5 0.9-0.8 1.8-0.8 2.8 0 1 0.3 1.9 0.7 2.8 0.5 0.9 1.2 1.6 2.1 2.1 0.9 0.5 1.8 0.7 2.8 0.7s1.9-0.2 2.8-0.7c0.9-0.5 1.6-1.2 2.1-2.1 0.5-0.9 0.7-1.8 0.7-2.8C546.7 89.9 546.5 88.9 546 88zM545.2 93.2c-0.4 0.7-1 1.3-1.7 1.7 -0.7 0.4-1.5 0.6-2.3 0.6 -0.8 0-1.6-0.2-2.3-0.6 -0.7-0.4-1.3-1-1.7-1.7s-0.6-1.5-0.6-2.3c0-0.8 0.2-1.6 0.6-2.4 0.4-0.8 1-1.3 1.8-1.7 0.8-0.4 1.5-0.6 2.3-0.6 0.8 0 1.6 0.2 2.3 0.6 0.8 0.4 1.3 1 1.8 1.7 0.4 0.8 0.6 1.5 0.6 2.4C545.8 91.6 545.6 92.4 545.2 93.2z" class="a"/><path d="M72.2 75c-5.5-6.4-10.4-12.9-15.2-19.3 -3.8-5-16.8-22.2-16.8-22.2L33 33.5v57.9h8.5V48.3l32.4 42.8h6.6v-57.7h-8.3V75z" class="a"/><path d="M174.2 76l-9.3-27h-5.8l-1.8 5.1c-1.1 3.3-2.3 6.6-3.4 9.8 -1.1 3.2-2.3 6.5-3.4 9.7l-0.8 2.4 -9.5-26.9h-8.4l15.4 42.5 5.4-0.3 9.4-26.9 9.4 26.9h5.6l15.2-42.3h-8.4L174.2 76z" class="a"/><path d="M112.7 47.9c-1-0.1-2-0.2-3.1-0.2 -9.3 0-16.9 5.7-19.6 14.5 -1 3.3-1.4 7.1-1.2 10.7 0.6 9.9 6.5 16.9 15.7 18.8 1.6 0.3 3.4 0.5 5.3 0.5 1.9 0 3.9-0.2 6.2-0.5 4.4-0.6 8.2-3 11-6.9l0.5-0.7 -4.8-5.4 -0.8 0.8c-3.6 3.6-7.3 5.4-11.4 5.4 -2.1 0-4.3-0.5-6.6-1.4 -4.1-1.7-6.2-5-7-11h32.7v-1.1c0-0.5 0-1 0-1.4 0-0.9 0-1.6 0-2.4C129.2 56.9 122.5 49.2 112.7 47.9zM97.7 65.1c0-2.4 1.1-4.9 3.7-7 2.6-2.1 5.4-2.8 8.2-2.8 1.7 0 3.5 0.4 5.3 1.2 3.7 1.7 5.7 4.5 6.1 8.6H97.7z" class="a"/><path d="M236.1 14.2l-30.7 13.7v70.7h61.6V27.9L236.1 14.2zM258.9 91.2h-8.1V64.8h-28.9v26.4h-8.4V33.5h8.2V56.6h28.8V33.6h8.4L258.9 91.2 258.9 91.2z" class="a"/></svg>
 
