<?xml version="1.0" encoding="UTF-8" standalone="no"?>
<svg viewBox="0 0 282 73" version="1.1" xmlns="http://www.w3.org/2000/svg" xmlns:xlink="http://www.w3.org/1999/xlink">
    <!-- Generator: Sketch 39.1 (31720) - http://www.bohemiancoding.com/sketch -->
    <title>New Heritage</title>
    <desc>Created with Sketch.</desc>
    <defs></defs>
    <g id="Tiles" stroke="none" stroke-width="1" fill="none" fill-rule="evenodd">
        <rect id="Background" fill="#9B9B9B" x="-447" y="-329" width="1191" height="730"></rect>
        <g id="New-Heritage" transform="translate(-13.000000, -167.000000)">
            <g id="up">
                <rect id="Rectangle" fill="#FFFFFF" x="0" y="0" width="300" height="415"></rect>
                <g id="New-Heritage-logo" transform="translate(28.000000, 176.000000)">
                    <path d="M222.287487,17.9530208 L222.265957,17.6240208 L218.893561,17.6240208 L218.736979,19.5789271 C216.954384,17.8032083 214.839542,16.9366458 212.294586,16.9366458 C212.096901,16.9366458 211.897258,16.9425208 211.695169,16.9518229 C208.719122,17.1031042 206.254416,18.2697812 204.369553,20.4170937 C200.722649,24.575125 200.876295,31.1663854 204.711099,35.1114479 C206.688443,37.1441979 209.125258,38.2183437 211.760738,38.2183437 L211.761717,38.2183437 C214.153025,38.2183437 216.563907,37.3263229 218.763402,35.6338333 C218.768295,36.3089687 218.753616,36.8367396 218.719363,37.3331771 C218.448769,41.2346667 216.573693,43.0446562 212.639068,43.2032812 C212.465849,43.2111146 212.295565,43.2135625 212.124792,43.2135625 C209.50595,43.2135625 207.023138,42.3871458 204.533476,40.6873125 L204.230586,40.4807083 L202.409825,43.3922604 L202.692163,43.5827083 C205.748948,45.6492396 208.741142,46.6538646 211.840497,46.6538646 C213.12007,46.6538646 214.429491,46.4751667 215.733041,46.1211979 C219.699961,45.0465625 221.893584,42.3739271 222.252746,38.1777083 C222.325654,37.3170208 222.362843,36.4088437 222.365289,35.4007917 C222.37948,30.0834271 222.381437,24.7645937 222.37948,19.44625 C222.37948,19.1103958 222.351588,18.7833542 222.323208,18.4381979 C222.311464,18.2810417 222.298252,18.1194792 222.287487,17.9530208 M215.058757,34.1954375 C214.032163,34.6409583 213.01927,34.8666562 212.048458,34.8666562 C210.542819,34.8666562 209.133577,34.3271354 207.861344,33.2632708 C206.213802,31.8846042 205.277243,29.6604271 205.355534,27.3118958 C205.433825,24.9530833 206.47461,22.8733333 208.211208,21.6062917 C209.430594,20.7172083 210.736101,20.2667917 212.091518,20.2667917 C213.194447,20.2667917 214.326734,20.5659271 215.456085,21.1568542 C217.940365,22.4557187 219.174431,24.6642292 219.122563,27.7153125 C219.007573,30.8946667 217.640901,33.0747812 215.058757,34.1954375" id="Shape" fill="#9797A6"></path>
                    <path d="M197.434416,32.964625 C197.426097,32.6615729 197.427565,32.3575417 197.429522,32.0535104 L197.430501,28.3865312 C197.43148,25.5190417 197.432458,22.6500833 197.426097,19.7825937 C197.426097,19.3654687 197.396738,18.9458958 197.370315,18.5395417 C197.358082,18.3510521 197.345359,18.1606042 197.335083,17.9691771 L197.316979,17.6357708 L193.948008,17.6357708 L193.776256,19.4937396 C191.484769,17.8585313 189.045017,16.9988229 186.684536,16.9988229 C183.936023,16.9988229 181.465445,18.1454271 179.541437,20.3152604 C175.792264,24.5403646 175.927806,31.495875 179.836008,35.5055625 C181.72821,37.4457812 184.061289,38.4792917 186.769678,38.5776979 C186.927239,38.5835729 187.084311,38.5865104 187.239915,38.5865104 C190.084823,38.5865104 192.396862,37.6132187 194.120738,35.6920937 C194.931052,37.3752812 195.857336,38.4641146 197.472583,38.4641146 C198.072979,38.4641146 198.75607,38.3187083 199.623635,38.0068437 L199.857041,37.9226354 L199.857041,35.6534167 L199.583511,35.5902604 C197.571425,35.1285833 197.491177,35.0301771 197.434416,32.964625 M187.09948,35.1354375 C186.962959,35.1354375 186.824482,35.1315208 186.684536,35.1251563 C184.005507,34.9978646 181.65579,33.1105208 180.836668,30.4280938 C180.312117,28.7076979 180.284225,27.0612292 180.752505,25.3927292 C181.637685,22.2403021 184.086734,20.356875 187.306951,20.356875 C187.460598,20.356875 187.61767,20.3617708 187.775231,20.3705833 C190.874586,20.5424271 193.567806,23.0373438 194.039021,26.1721458 C194.096272,26.5535313 194.123674,26.9476458 194.143736,27.2345417 C194.152054,27.348125 194.158416,27.4470208 194.164777,27.4905938 C194.146183,32.0628125 191.307635,35.1354375 187.09948,35.1354375" id="Shape" fill="#9797A6"></path>
                    <path d="M128.079122,16.9048229 C126.843588,16.9048229 125.551293,17.1354167 124.239915,17.5902396 C120.609157,18.8514063 118.394983,21.7815625 117.834711,26.0644375 C117.21572,30.8045833 118.851518,36.8249896 125.501383,38.1914167 C126.251021,38.3451458 127.074548,38.4239688 127.951899,38.4239688 C128.817017,38.4239688 129.746726,38.3485729 130.714113,38.1982708 C132.971348,37.8501771 134.885569,36.6614688 136.249305,34.7613958 L136.429864,34.5107292 L134.116847,32.3345313 L133.875122,32.5807917 C132.172777,34.315875 130.290361,35.1966354 128.280233,35.1966354 C127.230151,35.1966354 126.12233,34.9567396 124.988575,34.4842917 C122.861499,33.5971667 121.77374,31.8948854 121.393538,28.8271563 L137.231371,28.8271563 L137.271495,28.5201875 C137.688885,25.3055833 136.794408,22.1732292 134.821957,19.9265313 C133.110804,17.9775 130.716559,16.9048229 128.079122,16.9048229 L128.079122,16.9048229 Z M121.837351,25.4304271 C121.841266,24.4023021 122.256699,23.3668333 123.0264,22.4826458 C124.087247,21.2630938 125.70494,20.4792708 127.354439,20.3842917 C127.502703,20.3759688 127.64901,20.3710729 127.79287,20.3710729 C130.999386,20.3710729 133.225305,22.3886458 133.432287,25.4304271 L121.837351,25.4304271 L121.837351,25.4304271 Z" id="Shape" fill="#9797A6"></path>
                    <path d="M237.864513,17.0281979 C237.373235,16.9635729 236.879021,16.9307708 236.394594,16.9307708 C231.938353,16.9307708 228.24692,19.6685208 226.992303,23.905375 C226.517173,25.5097396 226.318509,27.3486146 226.431542,29.0841875 C226.744217,33.85175 229.566128,37.23575 233.981755,38.134625 C234.758796,38.2922708 235.619021,38.3725625 236.538454,38.3725625 C237.466206,38.3725625 238.447783,38.2952083 239.540435,38.1356042 C241.655278,37.8256979 243.501973,36.6609792 244.879899,34.7648229 L245.061437,34.5151354 L242.759184,32.3232708 L242.515503,32.5680625 C240.791627,34.3104896 238.900893,35.1936979 236.897126,35.1936979 C235.844109,35.1936979 234.73433,34.9508646 233.598128,34.4715625 C231.485243,33.5815 230.403355,31.8640417 230.021196,28.7669375 L246.066012,28.7669375 L246.066012,28.4139479 C246.066012,28.1461458 246.068948,27.90625 246.071883,27.6854479 C246.077755,27.2590208 246.082159,26.8908542 246.061608,26.5236667 C245.77193,21.37325 242.554159,17.6460521 237.864513,17.0281979 L237.864513,17.0281979 Z M230.439076,25.4201458 C230.48605,24.2955729 230.966563,23.2028229 231.813577,22.3093333 C232.957118,21.103 234.621297,20.3950625 236.377957,20.3676458 L236.487076,20.3666667 C238.09645,20.3666667 239.546307,20.9336042 240.568986,21.9617292 C241.461507,22.8601146 241.982633,24.0777083 242.053095,25.4201458 L230.439076,25.4201458 L230.439076,25.4201458 Z" id="Shape" fill="#9797A6"></path>
                    <path d="M169.665483,10.0222604 L166.037662,10.0222604 L166.037662,17.4281875 L163.842571,17.6147187 L163.842571,20.7260208 L166.108614,20.967875 L166.109592,22.7905938 C166.11155,23.8167604 166.106656,24.8424375 166.102742,25.867625 C166.092466,28.1671979 166.081701,30.5436354 166.150695,32.8833542 C166.252963,36.4024792 168.259177,38.5879792 171.384955,38.5879792 C172.172272,38.5879792 173.012435,38.4455104 173.882447,38.1644896 L174.126128,38.0861562 L174.126128,35.1418021 L172.751627,35.1466979 C172.569111,35.1466979 172.393445,35.1447396 172.217289,35.1398437 C170.401421,35.0845208 169.809833,34.5317812 169.780963,32.8686667 C169.731052,29.897875 169.755029,26.87225 169.779006,23.9469896 C169.786835,22.9776146 169.794175,22.00775 169.799068,21.0393542 C169.813258,21.0212396 169.925313,20.8890521 169.97033,20.8337292 L174.142765,20.8337292 L174.142765,17.4756771 L169.665483,17.4756771 L169.665483,10.0222604 L169.665483,10.0222604 Z" id="Shape" fill="#9797A6"></path>
                    <path d="M150.724381,17.2005312 C148.420171,17.2005312 146.514268,18.0861875 144.923977,19.9020521 L144.788924,17.58975 L141.444909,17.58975 L141.444909,37.8961979 L144.912233,37.8961979 C144.912233,37.8961979 144.910276,34.033875 144.908318,33.2353646 C144.903425,31.1957604 144.898532,29.0861458 144.926423,27.01325 C144.937678,26.1461979 144.982695,25.2282292 145.23127,24.3939792 C145.804753,22.4738333 147.049095,21.3570937 148.930043,21.0731354 C149.549522,20.9806042 150.183192,20.9595521 150.85405,20.9375208 C151.168683,20.92675 151.48772,20.9164687 151.813608,20.897375 L152.146346,20.8792604 L152.146346,17.2999167 L151.83367,17.2656458 C151.454936,17.2225625 151.081584,17.2005312 150.724381,17.2005312" id="Shape" fill="#9797A6"></path>
                    <path d="M160.091441,33.7489375 C160.073336,33.5139375 160.051317,33.2422188 160.01315,32.929375 C159.980854,32.6635313 159.989173,32.3883854 159.997981,32.0956146 C160.001895,31.9609792 160.00581,31.8258542 160.00581,31.6912188 L160.00581,28.9143021 C160.006788,25.8705625 160.007767,22.8278021 160.000917,19.7845521 C160.000427,19.3762396 159.974004,18.9733125 159.946602,18.5468854 C159.93339,18.3412604 159.918221,18.1312292 159.907456,17.9118958 L159.89033,17.5775104 L156.759169,17.5775104 L156.662283,17.7762812 C156.639285,17.8223021 156.61433,17.8634271 156.592311,17.9006354 C156.524295,18.0122604 156.44894,18.1395521 156.44894,18.3079687 C156.449918,19.792875 156.446004,21.2777812 156.441111,22.7621979 C156.430835,26.5868229 156.418113,30.5406979 156.514019,34.4304375 C156.576652,36.9997708 157.81708,38.4141771 160.008746,38.4141771 C160.650734,38.4141771 161.378353,38.2917813 162.169584,38.0479688 L162.418159,37.9715938 L162.418159,35.3420417 L162.12212,35.2950417 C160.189794,34.9870938 160.18588,34.9400938 160.091441,33.7489375" id="Shape" fill="#9797A6"></path>
                    <path d="M158.199239,14.8779479 L158.231534,14.8779479 C158.823122,14.8779479 159.414711,14.6263021 159.85412,14.1866563 C160.294509,13.7455417 160.546998,13.154125 160.546998,12.5612396 C160.546998,11.3627396 159.438198,10.2709688 158.221748,10.2709688 L158.149328,10.2719479 C156.992085,10.3150313 155.966959,11.3343438 155.911177,12.4980833 C155.884264,13.0733438 156.113755,13.6642708 156.540932,14.1205625 C156.984256,14.5930104 157.589546,14.8681563 158.199239,14.8779479" id="Shape" fill="#9797A6"></path>
                    <path d="M249.319014,38.2359688 C249.255891,38.1762396 249.171728,38.1238542 249.066524,38.0797917 C249.322439,38.0606979 249.527953,37.9706146 249.683068,37.8090521 C249.836715,37.6484688 249.915495,37.459 249.915495,37.2421146 C249.915495,37.0893646 249.86852,36.9439583 249.776039,36.806875 C249.683557,36.6712604 249.55927,36.5743229 249.403177,36.5199792 C249.247083,36.4656354 248.995083,36.4377292 248.646198,36.4377292 L247.626454,36.4377292 L247.626454,39.4065625 L248.105499,39.4065625 L248.105499,38.1453958 L248.387348,38.1453958 C248.555184,38.1453958 248.683386,38.1796667 248.770485,38.2477187 C248.897709,38.34025 249.064567,38.5708438 249.27106,38.9390104 L249.534804,39.4065625 L250.119542,39.4065625 L249.756955,38.8259167 C249.584225,38.5497917 249.438408,38.3539583 249.319014,38.2359688 M248.686322,37.7361042 L248.10501,37.7361042 L248.10501,36.8391875 L248.649623,36.8391875 C248.884008,36.8391875 249.043037,36.8563229 249.130136,36.8905937 C249.216256,36.9248646 249.283783,36.9767604 249.332715,37.0462812 C249.381647,37.1153125 249.406113,37.194625 249.406113,37.2812812 C249.406113,37.417875 249.355223,37.5280312 249.253934,37.6112604 C249.153623,37.694 248.964256,37.7361042 248.686322,37.7361042" id="Shape" fill="#9797A6"></path>
                    <path d="M251.223449,36.4979479 C250.976831,36.0553646 250.633817,35.7155937 250.19245,35.4776562 C249.752062,35.2397187 249.29993,35.12075 248.836544,35.12075 C248.374136,35.12075 247.922004,35.2392292 247.480637,35.4776562 C247.040249,35.7155937 246.695278,36.0553646 246.447682,36.4979479 C246.201064,36.9405312 246.076777,37.4017187 246.076777,37.8824896 C246.076777,38.357875 246.199107,38.8146562 246.442788,39.2538125 C246.68647,39.6929687 247.026548,40.0332292 247.464489,40.2760625 C247.901452,40.5188958 248.358967,40.6403125 248.837033,40.6403125 C249.315099,40.6403125 249.772614,40.5188958 250.209577,40.2760625 C250.647518,40.0332292 250.987596,39.6929687 251.230788,39.2538125 C251.472023,38.8151458 251.593375,38.357875 251.593375,37.8824896 C251.592396,37.4017187 251.470066,36.9405312 251.223449,36.4979479 M250.832482,39.0251771 C250.629903,39.3894271 250.346097,39.6733854 249.980085,39.8770521 C249.615052,40.0807188 249.233872,40.1820625 248.836054,40.1820625 C248.439216,40.1820625 248.058035,40.0807188 247.692023,39.8770521 C247.32699,39.6733854 247.042206,39.3894271 246.838649,39.0251771 C246.635091,38.6609271 246.533802,38.2795417 246.533802,37.8824896 C246.533802,37.4829896 246.637049,37.0971979 246.84452,36.7285417 C247.051014,36.3593958 247.337755,36.0754375 247.704746,35.8766667 C248.071736,35.6778958 248.449002,35.5785104 248.836054,35.5785104 C249.22115,35.5785104 249.598416,35.6778958 249.966384,35.8766667 C250.333864,36.0754375 250.620606,36.3593958 250.827099,36.7285417 C251.032614,37.0971979 251.13586,37.4829896 251.13586,37.8824896 C251.135371,38.2795417 251.034082,38.6609271 250.832482,39.0251771" id="Shape" fill="#9797A6"></path>
                    <path d="M19.4079146,30.1196562 C16.7283961,26.9784896 14.3199612,23.7883646 11.982967,20.6932187 C10.1245282,18.2320833 3.78342524,9.82104167 3.78342524,9.82104167 L0.217747573,9.8318125 L0.217747573,38.1845625 L4.38284272,38.1845625 L4.38284272,17.0800937 L20.2353553,38.0450312 L23.4854214,38.0450312 L23.4854214,9.81222917 L19.4079146,9.81222917 L19.4079146,30.1196562 L19.4079146,30.1196562 Z" id="Shape" fill="#EF4136"></path>
                    <path d="M69.2960854,30.6302917 L64.7527456,17.4002812 L61.9063689,17.4002812 L61.0422291,19.9157604 C60.4868505,21.5338333 59.9388117,23.1308542 59.3844117,24.7244479 C58.8339262,26.3058021 58.2770796,27.8861771 57.720233,29.4645937 L57.3145864,30.6151146 L52.6474485,17.4296562 L48.5567301,17.4296562 L56.0746485,38.2271562 L58.7394874,38.075875 L63.3346951,24.8953125 L67.9264777,38.0837083 L70.6480777,38.0837083 L78.0989592,17.3988125 L73.9798602,17.3988125 L69.2960854,30.6302917 L69.2960854,30.6302917 Z" id="Shape" fill="#EF4136"></path>
                    <path d="M39.2263689,16.8534167 C38.7272621,16.7873229 38.2247301,16.7545208 37.7319845,16.7545208 C33.1964738,16.7545208 29.4399612,19.5412292 28.1618563,23.8544583 C27.6808544,25.4764479 27.4792544,27.3383333 27.5937553,29.0949583 C27.910835,33.9467292 30.7855922,37.3909479 35.2829359,38.3069583 C36.0722097,38.4675417 36.944668,38.5497917 37.8773126,38.5497917 C38.8124039,38.5497917 39.8018097,38.4714583 40.9018019,38.310875 C43.0631301,37.9950937 44.9313553,36.8318437 46.3048777,34.9459687 L46.5563883,34.5998333 L44.202268,31.9663646 L43.8073864,32.3648854 C42.0419184,34.1484375 40.2128388,35.0145104 38.2159223,35.0145104 C37.1942214,35.0145104 36.1142913,34.7785312 35.0050019,34.3104896 C33.0027029,33.4669375 31.9531107,31.8415208 31.5567612,28.9270312 L47.5795573,28.9270312 L47.5795573,28.3982812 C47.5795573,28.1392917 47.5824932,27.9057604 47.5854291,27.6898542 C47.5908117,27.2604896 47.5957049,26.8903646 47.5746641,26.5158333 C47.2815612,21.2763125 44.0045825,17.4825312 39.2263689,16.8534167 L39.2263689,16.8534167 Z M31.8733515,25.2678854 C31.8709049,24.0938646 32.4321553,22.8801875 33.6818796,21.8520625 C34.9575379,20.803375 36.3251883,20.4782917 37.7153476,20.4782917 C38.566765,20.4782917 39.437266,20.6809792 40.3038524,21.0795 C42.108466,21.9098333 43.0890641,23.282625 43.2896854,25.2678854 L31.8733515,25.2678854 L31.8733515,25.2678854 Z" id="Shape" fill="#EF4136"></path>
                    <path d="M99.6168233,0.346135417 L84.5986019,7.05636458 L84.5986019,41.6787188 L114.737313,41.6787188 L114.737313,7.05636458 L99.6168233,0.346135417 L99.6168233,0.346135417 Z M110.766478,38.0748958 L106.808854,38.0748958 L106.808854,25.1312917 L92.6709204,25.1312917 L92.6709204,38.0509062 L88.5689476,38.0509062 L88.5689476,9.82642708 L92.5608233,9.82642708 L92.5608233,21.1142604 L106.674291,21.1142604 L106.674291,9.84845833 L110.766478,9.84845833 L110.766478,38.0748958 L110.766478,38.0748958 Z" id="Shape" fill="#EF4136"></path>
                </g>
            </g>
        </g>
    </g>
</svg>